<svg width="80" height="80" viewBox="0 0 80 80" fill="none" xmlns="http://www.w3.org/2000/svg">
<path d="M0 20C0 8.95431 8.95431 0 20 0H60C71.0457 0 80 8.95431 80 20V60C80 71.0457 71.0457 80 60 80H20C8.95431 80 0 71.0457 0 60V20Z" fill="#FFC123" fill-opacity="0.3"/>
<path fill-rule="evenodd" clip-rule="evenodd" d="M52.2963 34.1267C52.2963 36.4292 52.9048 37.7864 54.2441 39.3503C55.259 40.5025 55.5833 41.9815 55.5833 43.5861C55.5833 45.1888 55.0567 46.7103 54.0017 47.9456C52.6206 49.4265 50.6728 50.3719 48.6849 50.5362C45.8042 50.7818 42.9217 50.9886 40.0009 50.9886C37.0783 50.9886 34.1975 50.8649 31.3168 50.5362C29.3271 50.3719 27.3793 49.4265 26 47.9456C24.945 46.7103 24.4166 45.1888 24.4166 43.5861C24.4166 41.9815 24.7428 40.5025 25.7558 39.3503C27.137 37.7864 27.7055 36.4292 27.7055 34.1267V33.3456C27.7055 30.262 28.4744 28.2457 30.0578 26.2718C32.4119 23.3932 36.1854 21.6667 39.9189 21.6667H40.0829C43.8965 21.6667 47.7921 23.4763 50.1061 26.4786C51.6075 28.4119 52.2963 30.3433 52.2963 33.3456V34.1267ZM34.635 54.7783C34.635 53.855 35.4823 53.4322 36.2658 53.2512C37.1823 53.0574 42.767 53.0574 43.6835 53.2512C44.467 53.4322 45.3142 53.855 45.3142 54.7783C45.2687 55.6572 44.753 56.4364 44.0406 56.9312C43.1168 57.6514 42.0327 58.1074 40.8993 58.2718C40.2725 58.353 39.6567 58.3549 39.0518 58.2718C37.9166 58.1074 36.8325 57.6514 35.9105 56.9294C35.1962 56.4364 34.6806 55.6572 34.635 54.7783Z" fill="#080829"/>
</svg>
