<svg width="80" height="80" viewBox="0 0 80 80" fill="none" xmlns="http://www.w3.org/2000/svg">
<path d="M0 20C0 8.95431 8.95431 0 20 0H60C71.0457 0 80 8.95431 80 20V60C80 71.0457 71.0457 80 60 80H20C8.95431 80 0 71.0457 0 60V20Z" fill="#A259FF" fill-opacity="0.3"/>
<path fill-rule="evenodd" clip-rule="evenodd" d="M47.058 22.5845C48.2148 22.5845 49.3698 22.7477 50.468 23.1162C57.2348 25.3162 59.6731 32.7412 57.6363 39.2312C56.4813 42.5477 54.593 45.5745 52.1198 48.0477C48.5796 51.476 44.6948 54.5194 40.513 57.141L40.0546 57.4179L39.578 57.1227C35.3815 54.5194 31.4746 51.476 27.9015 48.0294C25.4448 45.5562 23.5546 42.5477 22.3813 39.2312C20.3096 32.7412 22.748 25.3162 29.5881 23.0777C30.1198 22.8944 30.668 22.766 31.218 22.6945H31.438C31.9531 22.6194 32.4646 22.5845 32.978 22.5845H33.1796C34.3346 22.6194 35.453 22.821 36.5365 23.1895H36.6446C36.718 23.2244 36.773 23.2629 36.8096 23.2977C37.2148 23.4279 37.598 23.5745 37.9646 23.7762L38.6613 24.0879C38.8296 24.1776 39.0186 24.3148 39.1819 24.4334C39.2854 24.5085 39.3785 24.5762 39.4496 24.6195C39.4795 24.6372 39.5099 24.6549 39.5406 24.6728C39.6978 24.7646 39.8615 24.8602 39.9996 24.966C42.0365 23.4095 44.5096 22.5662 47.058 22.5845ZM51.9346 35.7845C52.6863 35.7644 53.328 35.1612 53.383 34.3894V34.1712C53.438 31.6027 51.8815 29.2762 49.5146 28.3779C48.763 28.1194 47.938 28.5245 47.663 29.2945C47.4063 30.0645 47.8096 30.9079 48.5796 31.181C49.7548 31.621 50.5413 32.7779 50.5413 34.0594V34.1162C50.5065 34.536 50.633 34.9412 50.8896 35.2529C51.1463 35.5645 51.5313 35.746 51.9346 35.7845Z" fill="#080829"/>
</svg>
