<svg width="80" height="80" viewBox="0 0 80 80" fill="none" xmlns="http://www.w3.org/2000/svg">
<path d="M0 20C0 8.95431 8.95431 0 20 0H60C71.0457 0 80 8.95431 80 20V60C80 71.0457 71.0457 80 60 80H20C8.95431 80 0 71.0457 0 60V20Z" fill="#67E4FF" fill-opacity="0.4"/>
<path fill-rule="evenodd" clip-rule="evenodd" d="M47.6235 33.0935C47.6235 37.4013 44.1893 40.8554 39.9065 40.8554C35.6236 40.8554 32.1894 37.4013 32.1894 33.0935C32.1894 28.7841 35.6236 25.3333 39.9065 25.3333C44.1893 25.3333 47.6235 28.7841 47.6235 33.0935ZM39.9065 54.6666C33.616 54.6666 28.2447 53.6693 28.2447 49.6802C28.2447 45.6895 33.5815 44.6559 39.9065 44.6559C46.197 44.6559 51.5682 45.6532 51.5682 49.6439C51.5682 53.633 46.2314 54.6666 39.9065 54.6666ZM50.9213 33.2335C50.9213 35.4295 50.2663 37.4752 49.1172 39.1759C48.999 39.3509 49.104 39.587 49.3125 39.6233C49.5998 39.6729 49.8969 39.7009 50.199 39.7092C53.2112 39.7884 55.9149 37.8385 56.6618 34.9028C57.7682 30.5422 54.5196 26.6274 50.3828 26.6274C49.933 26.6274 49.5029 26.6753 49.0843 26.7611C49.0269 26.7743 48.9661 26.8008 48.9333 26.852C48.8939 26.9147 48.9235 26.9989 48.9629 27.0534C50.2055 28.8052 50.9213 30.9418 50.9213 33.2335ZM55.91 42.773C57.934 43.1709 59.2654 43.9832 59.8169 45.1638C60.2831 46.133 60.2831 47.2574 59.8169 48.225C58.9732 50.056 56.2531 50.6438 55.1959 50.7957C54.9776 50.8288 54.8019 50.6389 54.8249 50.4193C55.365 45.3454 51.069 42.9397 49.9577 42.3866C49.91 42.3619 49.9002 42.3239 49.9051 42.3008C49.9084 42.2843 49.9281 42.2578 49.9642 42.2529C52.3691 42.2083 54.9546 42.5385 55.91 42.773ZM29.8013 39.709C30.1033 39.7008 30.3988 39.6743 30.6877 39.6232C30.8962 39.5868 31.0013 39.3507 30.8831 39.1757C29.734 37.4751 29.079 35.4293 29.079 33.2334C29.079 30.9416 29.7947 28.8051 31.0374 27.0532C31.0768 26.9987 31.1047 26.9145 31.0669 26.8518C31.0341 26.8023 30.9717 26.7742 30.9159 26.761C30.4957 26.6751 30.0656 26.6272 29.6158 26.6272C25.479 26.6272 22.2304 30.542 23.3384 34.9026C24.0853 37.8383 26.789 39.7883 29.8013 39.709ZM30.0943 42.2998C30.0992 42.3245 30.0894 42.3609 30.0434 42.3873C28.9304 42.9404 24.6344 45.3461 25.1745 50.4183C25.1975 50.6395 25.0235 50.8278 24.8052 50.7964C23.748 50.6445 21.0279 50.0567 20.1841 48.2256C19.7163 47.2564 19.7163 46.1337 20.1841 45.1645C20.7357 43.9839 22.0654 43.1716 24.0894 42.772C25.0465 42.5392 27.6303 42.209 30.0369 42.2535C30.073 42.2585 30.091 42.2849 30.0943 42.2998Z" fill="#080829"/>
</svg>
