<svg width="58" height="58" viewBox="0 0 58 58" fill="none" xmlns="http://www.w3.org/2000/svg">
<g clip-path="url(#clip0_0_372)">
<path d="M29 58C45.0163 58 58 45.0163 58 29C58 12.9837 45.0163 0 29 0C12.9837 0 0 12.9837 0 29C0 45.0163 12.9837 58 29 58Z" fill="url(#paint0_linear_0_372)"/>
<path d="M38.4533 27.7625L25.4061 19.7889C25.1864 19.6545 24.9348 19.5811 24.6773 19.5762C24.4197 19.5713 24.1655 19.6351 23.9408 19.7611C23.7161 19.8871 23.5291 20.0706 23.3989 20.293C23.2686 20.5152 23.2 20.7682 23.2 21.0258V36.9743C23.2002 37.2319 23.269 37.4846 23.3992 37.7068C23.5295 37.9289 23.7165 38.1124 23.9412 38.2384C24.1658 38.3643 24.4198 38.4281 24.6774 38.4234C24.9348 38.4186 25.1863 38.3454 25.4061 38.2112L38.4533 30.2376C38.6653 30.108 38.8404 29.9262 38.9619 29.7095C39.0834 29.4927 39.1472 29.2485 39.1472 29C39.1472 28.7516 39.0834 28.5073 38.9619 28.2906C38.8404 28.074 38.6653 27.892 38.4533 27.7625Z" fill="white"/>
</g>
<defs>
<linearGradient id="paint0_linear_0_372" x1="0" y1="0" x2="58" y2="69.9625" gradientUnits="userSpaceOnUse">
<stop stop-color="#3F53D8"/>
<stop offset="1" stop-color="#8090FE"/>
</linearGradient>
<clipPath id="clip0_0_372">
<rect width="58" height="58" fill="white"/>
</clipPath>
</defs>
</svg>
