<svg width="47" height="72" viewBox="0 0 47 72" fill="none" xmlns="http://www.w3.org/2000/svg">
<g clip-path="url(#clip0_0_423)">
<path d="M11.7555 72C18.2402 72 23.5031 66.624 23.5031 60V48H11.7555C5.27076 48 0.0078125 53.376 0.0078125 60C0.0078125 66.624 5.27076 72 11.7555 72Z" fill="#0ACF83"/>
<path d="M0.0078125 36.0002C0.0078125 29.3762 5.27076 24.0002 11.7555 24.0002H23.5031V48.0002H11.7555C5.27076 48.0002 0.0078125 42.6242 0.0078125 36.0002Z" fill="#A259FF"/>
<path d="M0.0078125 12C0.0078125 5.376 5.27076 0 11.7555 0H23.5031V24H11.7555C5.27076 24 0.0078125 18.624 0.0078125 12Z" fill="#F24E1E"/>
<path d="M23.5 0H35.2477C41.7324 0 46.9953 5.376 46.9953 12C46.9953 18.624 41.7324 24 35.2477 24H23.5V0Z" fill="#FF7262"/>
<path d="M46.9953 36.0002C46.9953 42.6242 41.7324 48.0002 35.2477 48.0002C28.7629 48.0002 23.5 42.6242 23.5 36.0002C23.5 29.3762 28.7629 24.0002 35.2477 24.0002C41.7324 24.0002 46.9953 29.3762 46.9953 36.0002Z" fill="#1ABCFE"/>
</g>
<defs>
<clipPath id="clip0_0_423">
<rect width="47" height="72" fill="white"/>
</clipPath>
</defs>
</svg>
