<svg width="94" height="25" viewBox="0 0 94 25" fill="none" xmlns="http://www.w3.org/2000/svg">
<path d="M12.3263 24.5711C14.0105 24.5711 15.5158 24.2894 16.8421 23.7259C18.1894 23.1624 19.3263 22.4216 20.2526 21.5033C21.179 20.5641 21.8421 19.5416 22.2421 18.4354L18.3894 16.6511C17.9263 17.8198 17.1684 18.7903 16.1158 19.5624C15.0842 20.3137 13.8211 20.6894 12.3263 20.6894C10.8526 20.6894 9.5579 20.345 8.44208 19.6563C7.32628 18.9676 6.4526 18.018 5.82102 16.8076C5.18945 15.5763 4.87366 14.1467 4.87366 12.5189C4.87366 10.8911 5.18945 9.47193 5.82102 8.26153C6.4526 7.03019 7.32628 6.08069 8.44208 5.41283C9.5579 4.72413 10.8526 4.37979 12.3263 4.37979C13.8211 4.37979 15.0842 4.76591 16.1158 5.53805C17.1684 6.28935 17.9263 7.24932 18.3894 8.41805L22.2421 6.6337C21.8421 5.52758 21.179 4.51547 20.2526 3.59718C19.3263 2.65805 18.1894 1.90674 16.8421 1.34326C15.5158 0.779786 14.0105 0.498047 12.3263 0.498047C10.642 0.498047 9.08421 0.800623 7.6526 1.40587C6.22102 1.99019 4.97892 2.82504 3.92629 3.91022C2.87365 4.97457 2.0526 6.24758 1.46313 7.72935C0.873659 9.19019 0.578918 10.7867 0.578918 12.5189C0.578918 14.2511 0.873659 15.858 1.46313 17.3398C2.0526 18.8006 2.87365 20.0737 3.92629 21.1589C4.97892 22.2441 6.22102 23.0893 7.6526 23.6946C9.08421 24.2789 10.642 24.5711 12.3263 24.5711ZM32.5258 24.5711C34.1889 24.5711 35.7047 24.1954 37.0731 23.4441C38.4415 22.672 39.5363 21.618 40.3573 20.2824C41.1784 18.9258 41.5889 17.3919 41.5889 15.6807C41.5889 13.9694 41.1784 12.4458 40.3573 11.1102C39.5573 9.7746 38.4731 8.72062 37.1047 7.94848C35.7363 7.17634 34.2099 6.79022 32.5258 6.79022C30.8205 6.79022 29.2836 7.17634 27.9152 7.94848C26.5468 8.72062 25.4521 9.7746 24.631 11.1102C23.831 12.4458 23.431 13.9694 23.431 15.6807C23.431 17.3919 23.831 18.9155 24.631 20.2511C25.4521 21.5867 26.5468 22.6407 27.9152 23.4128C29.3047 24.185 30.8415 24.5711 32.5258 24.5711ZM32.5258 20.8146C31.5994 20.8146 30.7678 20.5954 30.031 20.1572C29.3152 19.7189 28.7467 19.1137 28.3258 18.3415C27.9257 17.5485 27.7258 16.6616 27.7258 15.6807C27.7258 14.6998 27.9257 13.8232 28.3258 13.0511C28.7467 12.2789 29.3152 11.6737 30.031 11.2354C30.7678 10.7763 31.5994 10.5467 32.5258 10.5467C33.452 10.5467 34.2626 10.7763 34.9573 11.2354C35.6731 11.6737 36.231 12.2789 36.631 13.0511C37.052 13.8232 37.2626 14.6998 37.2626 15.6807C37.2626 16.6616 37.052 17.5485 36.631 18.3415C36.231 19.1137 35.6731 19.7189 34.9573 20.1572C34.2626 20.5954 33.452 20.8146 32.5258 20.8146ZM43.7787 24.1954H47.9156V0.498047H43.7787V24.1954ZM50.7877 24.1954H54.9245V0.498047H50.7877V24.1954ZM63.0073 24.5711C65.2389 24.5711 67.0283 23.8406 68.3758 22.3798V24.1954H72.2915V12.8633C72.2915 11.6737 71.9862 10.6198 71.3758 9.70153C70.7652 8.78323 69.9231 8.0737 68.8494 7.57283C67.7968 7.05112 66.5652 6.79022 65.1546 6.79022C63.4283 6.79022 61.8915 7.19718 60.5441 8.01109C59.1967 8.825 58.2705 9.89982 57.7651 11.2354L61.1442 12.8633C61.46 12.0911 61.9547 11.4754 62.6284 11.0163C63.302 10.5363 64.0915 10.2963 64.9967 10.2963C65.9442 10.2963 66.7021 10.5467 67.2705 11.0476C67.8599 11.5276 68.1547 12.1328 68.1547 12.8633V13.4267L63.0389 14.2407C61.0179 14.5745 59.5231 15.2111 58.5546 16.1502C57.5862 17.0894 57.102 18.2684 57.102 19.6876C57.102 21.1902 57.6388 22.3798 58.7125 23.2563C59.7862 24.1328 61.2178 24.5711 63.0073 24.5711ZM61.3968 19.5311C61.3968 18.3415 62.2073 17.5902 63.8283 17.2772L68.1547 16.5572V17.2459C68.1547 18.4146 67.7442 19.4059 66.9231 20.2198C66.1231 21.0337 65.0704 21.4407 63.7651 21.4407C63.0705 21.4407 62.5021 21.2737 62.06 20.9398C61.6179 20.585 61.3968 20.1154 61.3968 19.5311ZM84.5466 24.5711C86.2098 24.5711 87.694 24.185 88.9992 23.4128C90.3045 22.6198 91.336 21.5554 92.0939 20.2198C92.8518 18.8632 93.2308 17.3503 93.2308 15.6807C93.2308 14.0111 92.8518 12.5084 92.0939 11.1728C91.336 9.81627 90.3045 8.75193 88.9992 7.97979C87.694 7.18671 86.2202 6.79022 84.5781 6.79022C82.3466 6.79022 80.5887 7.48938 79.3044 8.88761V0.498047H75.1676V24.1954H79.0518V22.2859C79.6834 23.0163 80.4729 23.5798 81.4202 23.9763C82.3887 24.3728 83.4308 24.5711 84.5466 24.5711ZM84.0729 20.8146C83.1676 20.8146 82.3466 20.5954 81.6097 20.1572C80.8939 19.7189 80.3255 19.1137 79.9044 18.3415C79.5045 17.5694 79.3044 16.6824 79.3044 15.6807C79.3044 14.6789 79.5045 13.7919 79.9044 13.0198C80.3255 12.2476 80.8939 11.6424 81.6097 11.2041C82.3466 10.7659 83.1676 10.5467 84.0729 10.5467C85.0202 10.5467 85.8518 10.7763 86.5676 11.2354C87.3045 11.6737 87.8835 12.2789 88.3044 13.0511C88.7255 13.8232 88.936 14.6998 88.936 15.6807C88.936 16.6616 88.7255 17.5485 88.3044 18.3415C87.8835 19.1137 87.3045 19.7189 86.5676 20.1572C85.8518 20.5954 85.0202 20.8146 84.0729 20.8146Z" fill="#080829"/>
</svg>
