<svg width="25" height="25" viewBox="0 0 25 25" fill="none" xmlns="http://www.w3.org/2000/svg">
<path d="M0.426331 5.25663H4.56317V0.874023H0.426331V5.25663ZM0.426331 24.1958H4.56317V7.1662H0.426331V24.1958ZM15.8359 24.5714C17.4987 24.5714 19.0145 24.1958 20.3832 23.4445C21.751 22.6723 22.8464 21.6183 23.6675 20.2827C24.4885 18.9262 24.899 17.3923 24.899 15.681C24.899 13.9697 24.4885 12.4462 23.6675 11.1105C22.8671 9.77493 21.7826 8.72095 20.4148 7.94881C19.0461 7.17666 17.5194 6.79055 15.8359 6.79055C14.1306 6.79055 12.5931 7.17666 11.2253 7.94881C9.85659 8.72095 8.76218 9.77493 7.94113 11.1105C7.1408 12.4462 6.74014 13.9697 6.74014 15.681C6.74014 17.3923 7.1408 18.9158 7.94113 20.2514C8.76218 21.587 9.85659 22.641 11.2253 23.4132C12.6148 24.1853 14.1513 24.5714 15.8359 24.5714ZM15.8359 20.8149C14.9092 20.8149 14.0773 20.5958 13.3411 20.1575C12.6247 19.7192 12.0563 19.114 11.6359 18.3418C11.2352 17.5488 11.0359 16.6619 11.0359 15.681C11.0359 14.7001 11.2352 13.8236 11.6359 13.0514C12.0563 12.2793 12.6247 11.674 13.3411 11.2358C14.0773 10.7767 14.9092 10.5471 15.8359 10.5471C16.7615 10.5471 17.5727 10.7767 18.2675 11.2358C18.9829 11.674 19.5405 12.2793 19.9411 13.0514C20.3615 13.8236 20.5727 14.7001 20.5727 15.681C20.5727 16.6619 20.3615 17.5488 19.9411 18.3418C19.5405 19.114 18.9829 19.7192 18.2675 20.1575C17.5727 20.5958 16.7615 20.8149 15.8359 20.8149Z" fill="white"/>
</svg>
