<svg width="126" height="71" viewBox="0 0 126 71" fill="none" xmlns="http://www.w3.org/2000/svg">
<path d="M62.7827 39.3155H59.1584V29.5971H62.7827V39.3155ZM59.5123 38.9605H62.4287V29.9521H59.5123V38.9605ZM67.8255 39.3155H64.2742V29.5971H71.694C72.7572 29.5107 73.8155 29.8101 74.6769 30.4405C75.0479 30.7808 75.3353 31.2025 75.5172 31.6726C75.6984 32.1427 75.7692 32.6485 75.7239 33.1506C75.777 34.0182 75.5016 34.8739 74.953 35.5469C74.3039 36.2938 73.2237 36.6786 71.7428 36.6921C71.3698 36.702 68.5744 36.6921 67.8276 36.6921L67.8255 39.3155ZM64.626 38.9605H67.4716V36.3335H67.6493C67.6854 36.3335 71.3146 36.3449 71.7343 36.3335C73.114 36.3215 74.1057 35.9785 74.6854 35.309C75.1739 34.7002 75.4159 33.9296 75.365 33.1499C75.4082 32.7 75.348 32.2461 75.1887 31.8235C75.0287 31.4007 74.7746 31.0206 74.4448 30.7125C73.6463 30.1374 72.6687 29.8675 71.689 29.9513H64.6281L64.626 38.9605ZM70.9422 34.5088H67.4475V31.8634H70.9656C71.2148 31.8288 71.4689 31.858 71.7039 31.9482C71.9396 32.0385 72.1477 32.1869 72.3105 32.3795C72.4585 32.6259 72.5279 32.9113 72.5102 33.1982C72.5236 33.4645 72.4663 33.7296 72.3438 33.9664C72.176 34.1694 71.9587 34.3257 71.7131 34.4202C71.4682 34.5147 71.2027 34.5442 70.9422 34.506V34.5088ZM67.8014 34.1538H70.9422C71.5227 34.1538 71.8823 34.0324 72.0416 33.7825C72.1293 33.6009 72.169 33.3997 72.1569 33.1982C72.1725 32.9867 72.1265 32.7752 72.0253 32.589L72.021 32.5826C71.8526 32.3341 71.5177 32.2184 70.9656 32.2184H67.8014V34.1538ZM82.1831 39.459C79.0048 39.459 77.1077 38.6673 76.385 37.0393C76.2668 36.7248 76.1861 36.3973 76.1458 36.0637L76.1146 35.8593H79.896L79.9208 36.0084C79.9498 36.1598 80.0142 36.3022 80.1077 36.4244C80.257 36.6055 80.7554 36.9093 82.409 36.9093C84.3966 36.9093 84.3966 36.5593 84.3966 36.3712C84.3966 36.0538 84.1666 35.9452 82.5456 35.7719L82.2376 35.7428C81.6275 35.6853 80.8559 35.6122 80.5034 35.5816C77.5303 35.3118 76.2031 34.3853 76.2031 32.5783C76.2031 30.6805 78.4619 29.4543 81.958 29.4543C84.81 29.4543 86.6476 30.2084 87.4185 31.6972C87.6011 32.0436 87.7243 32.4186 87.7816 32.8063L87.8064 33.0058H84.0208L84.0052 32.8453C83.9903 32.7199 83.9372 32.6023 83.8523 32.5088C83.7107 32.3185 83.2633 32.004 81.8745 32.004C80.1693 32.004 79.9342 32.2226 79.9342 32.4584C79.9342 32.7729 80.4729 32.8844 82.1994 33.0697C82.9193 33.1286 84.0767 33.2479 84.4731 33.2962C86.9655 33.5674 88.0775 34.4712 88.0775 36.2277C88.0782 37.701 87.0554 39.459 82.1831 39.459ZM76.528 36.2143C76.5634 36.4484 76.6243 36.678 76.7099 36.8987C77.3682 38.3819 79.1591 39.104 82.1831 39.104C84.7116 39.104 87.7264 38.607 87.7264 36.2277C87.7264 34.6707 86.7425 33.8997 84.4356 33.649C84.0392 33.6007 82.8889 33.4822 82.1704 33.4225C80.3299 33.2223 79.5817 33.1158 79.5817 32.4584C79.5817 31.7782 80.388 31.649 81.8759 31.649C83.0517 31.649 83.8112 31.862 84.1333 32.2915C84.2211 32.3974 84.2876 32.5194 84.3287 32.6508H87.3966C87.335 32.3762 87.2373 32.111 87.1063 31.862C86.3985 30.4995 84.6692 29.8093 81.9594 29.8093C78.6785 29.8093 76.5584 30.8964 76.5584 32.5783C76.5584 34.1829 77.7484 34.9753 80.5359 35.2281C80.8899 35.2586 81.6607 35.3317 82.2723 35.3899L82.5824 35.4191C84.088 35.5781 84.752 35.6775 84.752 36.3712C84.752 37.1181 83.8933 37.2643 82.4104 37.2643C81.0385 37.2643 80.1721 37.0577 79.8373 36.6509C79.7339 36.5212 79.6561 36.373 79.6079 36.2143H76.528ZM94.8023 39.4469C91.1072 39.4469 89.0686 37.9481 89.0686 35.2259V29.5971H92.6447V35.2259C92.6447 36.1596 93.4778 36.6949 94.9297 36.6949C96.3171 36.6949 97.1786 36.1362 97.1786 35.238V29.5971H100.718V35.5241C100.721 38.0169 98.5631 39.4469 94.8001 39.4469H94.8023ZM89.4225 29.9521V35.2259C89.4225 38.5899 92.7905 39.0919 94.8023 39.0919C96.882 39.0919 100.37 38.6283 100.37 35.5241V29.9521H97.5382V35.238C97.5382 36.3385 96.516 37.0499 94.9353 37.0499C93.2832 37.0499 92.2964 36.3683 92.2964 35.2259V29.9521H89.4225ZM115.716 39.3155H112.341V34.9277L110.427 39.3155H107.483L105.589 34.9363V39.3155H102.202V29.5971H106.657L108.972 34.9554L111.398 29.5971H115.72L115.716 39.3155ZM112.695 38.9605H115.362V29.9521H111.623L108.96 35.8301L106.422 29.9521H102.553V38.9605H105.232V33.228L107.709 38.9627H110.187L112.691 33.2365L112.695 38.9605ZM13.4877 29.7746H10.264V39.138H19.1718V36.6452H13.4877V29.7746ZM25.6785 29.5616C21.5637 29.5616 19.3997 31.5176 19.3997 34.3896C19.3997 37.6343 21.6713 39.28 25.6785 39.28C30.0899 39.28 31.9452 37.3716 31.9452 34.3896C31.9452 31.3614 29.8521 29.5601 25.6785 29.5601V29.5616ZM25.6665 31.9947C25.9466 31.9934 26.2265 32.0098 26.5046 32.0437L22.9008 35.6583C22.7303 35.2714 22.6471 34.8515 22.6573 34.4286C22.6573 32.9596 23.3949 31.9933 25.6665 31.9933V31.9947ZM25.6785 36.8852C25.4086 36.8864 25.1389 36.8712 24.8708 36.8398L28.4809 33.2188C28.6451 33.5993 28.7237 34.0113 28.711 34.4258C28.711 35.855 28.0315 36.8838 25.6785 36.8838V36.8852ZM38.3323 35.6072H41.6501C41.6012 35.8382 41.4994 36.0545 41.3528 36.2391C40.6649 36.8011 39.7871 37.0746 38.9028 37.0024C38.4577 37.0501 38.0077 37.0014 37.583 36.8594C37.1583 36.7174 36.7691 36.4855 36.4416 36.1795C36.1061 35.6859 35.9468 35.0932 35.9893 34.4975C35.935 33.8732 36.1083 33.2504 36.477 32.7445C36.9406 32.2191 37.7257 31.9926 38.8795 31.9926C39.6136 31.9316 40.3468 32.1208 40.9606 32.5294C41.1541 32.6835 41.2987 32.8907 41.3768 33.1258H44.4539C44.4316 32.7384 44.3387 32.3585 44.18 32.0047C43.4431 30.5016 41.7301 29.607 38.8172 29.607C36.2837 29.607 34.5835 30.3823 33.6441 31.5517C33.0237 32.3962 32.7053 33.4257 32.7402 34.474C32.7 35.5461 33.0102 36.602 33.6236 37.4809C34.5516 38.6879 36.2045 39.2815 38.1907 39.2815C39.5113 39.3738 40.8228 39.0029 41.9007 38.2321L41.9842 39.138H44.5403V33.5915H38.3323V35.6072ZM51.7952 29.5594C47.6811 29.5594 45.5164 31.5155 45.5164 34.3874C45.5164 37.6321 47.7873 39.2779 51.7952 39.2779C56.2073 39.2779 58.0626 37.3694 58.0626 34.3874C58.0626 31.3614 55.9695 29.5601 51.7952 29.5601V29.5594ZM51.7839 31.9926C52.0566 31.9918 52.3291 32.0074 52.6 32.0395L49.0105 35.642C48.8452 35.2594 48.7648 34.8454 48.7747 34.4286C48.7719 32.9596 49.5123 31.9933 51.7839 31.9933V31.9926ZM51.7952 36.8831C51.5181 36.8843 51.2413 36.8682 50.9663 36.8348L54.5884 33.201C54.7588 33.5865 54.8404 34.0057 54.827 34.4272C54.8284 35.855 54.1517 36.8838 51.7952 36.8838V36.8831Z" fill="#080829"/>
</svg>
