<svg width="126" height="71" viewBox="0 0 126 71" fill="none" xmlns="http://www.w3.org/2000/svg">
<path d="M7.73105 21.3334V46.505H119.356V21.3334H7.73105ZM117.948 45.085H60.9312V22.7534H117.948V45.085Z" fill="#080829"/>
<path d="M13.6644 38.1362V29.7675H16.5279V35.9075H21.5792V38.1362H13.6644Z" fill="white"/>
<path d="M32.8684 33.8933C32.8684 36.5579 31.2198 38.264 27.2984 38.264C23.7366 38.264 21.7178 36.7929 21.7178 33.8933C21.7178 31.3238 23.6422 29.5757 27.2984 29.5757C31.0115 29.5757 32.8684 31.1853 32.8684 33.8933ZM29.9936 33.9252C29.9936 32.7182 29.4967 31.7505 27.2878 31.7505C25.269 31.7505 24.6129 32.6138 24.6129 33.9252C24.6129 35.2579 25.2148 36.1212 27.297 36.1212C29.3925 36.1212 29.9936 35.2046 29.9936 33.9252Z" fill="white"/>
<path d="M41.7263 38.1362L41.6524 37.3254C40.6946 38.0149 39.5286 38.3468 38.3546 38.264C36.5899 38.264 35.1201 37.7308 34.2959 36.6544C33.7522 35.8686 33.4777 34.9253 33.5138 33.9678C33.483 33.0304 33.767 32.1099 34.3198 31.3557C35.1539 30.3113 36.6659 29.6183 38.917 29.6183C41.5067 29.6183 43.0286 30.4178 43.6832 31.7611C43.8238 32.0775 43.9063 32.4169 43.9268 32.7629H41.1872C41.1182 32.5526 40.9897 32.3673 40.8176 32.2297C40.2719 31.8648 39.6202 31.696 38.9677 31.7505C38.585 31.7037 38.1968 31.7393 37.8288 31.8551C37.4607 31.9709 37.1213 32.1642 36.8328 32.4221C36.5052 32.8744 36.3514 33.4312 36.3999 33.9891C36.3619 34.5214 36.5033 35.0511 36.8011 35.4922C37.0922 35.7657 37.4383 35.9729 37.8157 36.0999C38.1931 36.2267 38.5932 36.2704 38.9888 36.2277C39.7747 36.2922 40.5548 36.0478 41.166 35.5454C41.2974 35.3799 41.3878 35.1852 41.43 34.9774H38.482V33.179H43.9986V38.1362H41.7263Z" fill="white"/>
<path d="M55.9525 33.8933C55.9525 36.5579 54.3032 38.264 50.3824 38.264C46.8206 38.264 44.8018 36.7929 44.8018 33.8933C44.8018 31.3238 46.7263 29.5757 50.3824 29.5757C54.0927 29.5757 55.9525 31.1853 55.9525 33.8933ZM53.0777 33.9252C53.0777 32.7182 52.5807 31.7505 50.3718 31.7505C48.353 31.7505 47.697 32.6138 47.697 33.9252C47.697 35.2579 48.2995 36.1212 50.381 36.1212C52.4758 36.1212 53.0777 35.2046 53.0777 33.9252Z" fill="white"/>
<path d="M65.7544 38.1043V29.7355H67.7957V38.1043H65.7544Z" fill="#080829"/>
<path d="M78.2784 34.6075C77.761 35.2898 76.8706 35.6015 75.6155 35.6093C75.3508 35.6093 71.8418 35.5987 71.8418 35.5987V38.1043H69.8441V29.7355H75.6162C76.0787 29.6862 76.5468 29.7356 76.9888 29.8807C77.4316 30.0258 77.8384 30.2633 78.184 30.5776C78.6402 31.177 78.8619 31.9243 78.8077 32.6777C78.8542 33.363 78.6676 34.0439 78.2784 34.6075ZM76.6404 31.879C76.4292 31.5595 75.9738 31.382 75.203 31.382H71.8313V33.9295H75.1812C76.0054 33.9295 76.4398 33.7591 76.6404 33.4282C76.76 33.1951 76.8107 32.9326 76.7882 32.6714C76.8058 32.3989 76.7551 32.1263 76.6404 31.879Z" fill="#080829"/>
<path d="M84.6945 38.2321C80.9314 38.2321 79.7798 36.8121 79.7798 35.407H81.9148C81.9148 36.0999 82.8552 36.6225 84.7896 36.6225C86.7126 36.6225 87.2202 36.281 87.2202 35.7265C87.2202 35.1081 86.84 34.9164 85.0535 34.714C84.7016 34.6821 83.7435 34.5649 83.3838 34.5117C80.8498 34.2234 79.8741 33.4665 79.8741 32.1126C79.8741 30.6841 81.3017 29.6077 84.3982 29.6077C87.7593 29.6077 89.0489 30.9404 89.0489 32.3263H86.9372C86.9372 31.6227 86.1446 31.2173 84.2736 31.2173C82.3498 31.2173 81.938 31.4835 81.938 32.0061C81.938 32.5499 82.3604 32.7203 84.4017 32.9653C84.867 33.0299 85.9024 33.147 86.1875 33.1783C88.3443 33.4019 89.3164 34.1907 89.3164 35.5873C89.3129 37.2508 87.8333 38.2321 84.6945 38.2321Z" fill="#080829"/>
<path d="M95.3278 38.2214C92.5699 38.2214 90.7728 37.1231 90.7728 34.8134V29.7355H92.7909V34.8418C92.7909 35.8976 93.6476 36.6005 95.4123 36.6005C97.008 36.6005 97.9597 35.9402 97.9597 34.8418V29.7355H99.9574V35.003C99.9574 37.1025 98.287 38.2214 95.3278 38.2214Z" fill="#080829"/>
<path d="M110.896 38.1043V32.518L108.307 38.1043H106.341L103.825 32.518V38.1043H101.925V29.7355H104.5L107.353 36.1106L110.27 29.7355H112.805V38.1043H110.896Z" fill="#080829"/>
</svg>
