<svg width="126" height="71" viewBox="0 0 126 71" fill="none" xmlns="http://www.w3.org/2000/svg">
<path d="M29.7029 34.3434C29.4361 34.6141 29.2319 34.9408 29.1046 35.3002C28.9773 35.6597 28.9302 36.0431 28.9666 36.423L28.954 36.4102C28.9913 36.8574 28.9316 37.3074 28.7788 37.7289C28.6259 38.1504 28.3838 38.5332 28.0691 38.8505C27.7546 39.1678 27.3751 39.4121 26.9572 39.5662C26.5393 39.7204 26.0931 39.7807 25.6498 39.7429L25.6625 39.7557C25.1322 39.7059 24.5994 39.8223 24.1371 40.0891C23.6748 40.3558 23.3052 40.7599 23.0789 41.2462C22.8525 41.7326 22.7805 42.2774 22.8724 42.8066C22.9643 43.3358 23.2159 43.8235 23.5926 44.2032C23.9694 44.5829 24.4532 44.8362 24.9779 44.9284C25.5026 45.0207 26.0428 44.9474 26.5248 44.7188C27.0067 44.49 27.407 44.1169 27.671 43.6503C27.9351 43.1837 28.05 42.6463 28.0002 42.1115L28.0135 42.1243C27.9761 41.677 28.0359 41.227 28.1887 40.8055C28.3415 40.3841 28.5837 40.0013 28.8983 39.6839C29.2129 39.3666 29.5924 39.1223 30.0103 38.9682C30.4282 38.814 30.8743 38.7538 31.3177 38.7915L31.3043 38.7788C31.7375 38.818 32.1736 38.7464 32.5721 38.5704C32.9705 38.3945 33.3185 38.1199 33.5837 37.7723C33.849 37.4246 34.0229 37.0149 34.0894 36.5813C34.1559 36.1478 34.1129 35.7042 33.9642 35.2919C33.8155 34.8796 33.5661 34.5119 33.239 34.2227C32.9118 33.9335 32.5177 33.7323 32.0929 33.6377C31.6682 33.5431 31.2266 33.5582 30.8092 33.6815C30.3918 33.8049 30.012 34.0325 29.705 34.3434H29.7029Z" fill="#080829"/>
<path d="M24.5102 38.0816L24.4968 38.0688C24.8736 38.1071 25.2541 38.0604 25.6109 37.9322C25.9677 37.804 26.2917 37.5974 26.5596 37.3274C26.8275 37.0574 27.0326 36.7307 27.16 36.3709C27.2874 36.0111 27.3339 35.6274 27.2963 35.2473L27.3096 35.26C27.2722 34.8128 27.3319 34.3628 27.4848 33.9413C27.6376 33.5198 27.8798 33.1371 28.1944 32.8197C28.509 32.5024 28.8885 32.2581 29.3063 32.104C29.7242 31.9499 30.1704 31.8895 30.6138 31.9273L30.6004 31.9145C31.1308 31.9648 31.6636 31.8488 32.1262 31.5823C32.5888 31.3158 32.9587 30.912 33.1854 30.4257C33.412 29.9394 33.4845 29.3945 33.3928 28.8652C33.3012 28.3359 33.0498 27.848 32.6731 27.4681C32.2965 27.0881 31.8128 26.8346 31.288 26.7422C30.7632 26.6496 30.2229 26.7228 29.7409 26.9514C29.2588 27.18 28.8583 27.5531 28.5942 28.0197C28.33 28.4863 28.215 29.0237 28.2648 29.5587L28.2522 29.5452C28.2897 29.9925 28.23 30.4425 28.0772 30.8641C27.9245 31.2857 27.6823 31.6685 27.3676 31.9859C27.053 32.3032 26.6735 32.5475 26.2555 32.7015C25.8376 32.8556 25.3914 32.9158 24.948 32.878L24.9607 32.8915C24.5838 32.8532 24.2033 32.8998 23.8465 33.0281C23.4898 33.1562 23.1657 33.3628 22.8978 33.6329C22.6299 33.9029 22.4248 34.2296 22.2974 34.5894C22.1701 34.9491 22.1235 35.3329 22.1612 35.713L22.1486 35.7002C22.1859 36.1474 22.126 36.5974 21.9731 37.0188C21.8202 37.4402 21.5781 37.823 21.2635 38.1403C20.9489 38.4576 20.5695 38.7018 20.1516 38.856C19.7339 39.0102 19.2877 39.0706 18.8444 39.033L18.8571 39.0458C18.3267 38.9955 17.7938 39.1115 17.3312 39.378C16.8686 39.6444 16.4988 40.0483 16.2721 40.5346C16.0454 41.0208 15.9729 41.5658 16.0647 42.0951C16.1563 42.6244 16.4076 43.1123 16.7843 43.4922C17.161 43.8722 17.6447 44.1257 18.1695 44.2181C18.6943 44.3105 19.2345 44.2375 19.7166 44.0089C20.1987 43.7802 20.5991 43.4072 20.8633 42.9405C21.1274 42.4739 21.2424 41.9365 21.1926 41.4015L21.206 41.4143C21.1686 40.9671 21.2283 40.5171 21.3812 40.0956C21.534 39.6741 21.7762 39.2913 22.0908 38.974C22.4054 38.6567 22.7849 38.4124 23.2027 38.2582C23.6206 38.1041 24.0668 38.0438 24.5102 38.0816Z" fill="#080829"/>
<path d="M19.7926 36.6566C20.0594 36.3859 20.2637 36.0592 20.3908 35.6997C20.5179 35.3403 20.5649 34.9569 20.5281 34.577L20.5415 34.5898C20.5041 34.1425 20.5639 33.6923 20.7168 33.2707C20.8697 32.8491 21.112 32.4662 21.4268 32.1489C21.7415 31.8315 22.1212 31.5873 22.5393 31.4333C22.9573 31.2792 23.4036 31.2191 23.8471 31.257L23.8337 31.2443C24.364 31.2944 24.8965 31.1783 25.3589 30.9118C25.8213 30.6455 26.191 30.2417 26.4176 29.7555C26.6441 29.2695 26.7165 28.7247 26.6248 28.1956C26.5331 27.6665 26.2819 27.1787 25.9053 26.799C25.5288 26.4192 25.0453 26.1657 24.5207 26.0733C23.9961 25.9808 23.4561 26.0538 22.9741 26.2823C22.4922 26.5108 22.0918 26.8837 21.8277 27.3501C21.5636 27.8165 21.4485 28.3537 21.4981 28.8885L21.4855 28.8757C21.5229 29.3229 21.4632 29.7729 21.3103 30.1945C21.1575 30.6159 20.9154 30.9987 20.6007 31.316C20.2861 31.6333 19.9066 31.8777 19.4888 32.0317C19.0709 32.1859 18.6247 32.2462 18.1813 32.2084L18.194 32.2212C17.7608 32.182 17.3248 32.2538 16.9264 32.4298C16.528 32.6058 16.1801 32.8805 15.9149 33.2282C15.6498 33.5759 15.4759 33.9856 15.4094 34.4191C15.343 34.8527 15.3861 35.2962 15.5349 35.7084C15.6836 36.1207 15.9331 36.4884 16.2602 36.7775C16.5874 37.0667 16.9816 37.2678 17.4062 37.3624C17.831 37.4569 18.2725 37.4418 18.6899 37.3185C19.1073 37.1951 19.4871 36.9674 19.794 36.6566H19.7926Z" fill="#080829"/>
<path d="M41.5976 29.5751H43.6882V39.8367H41.5976V29.5751Z" fill="#080829"/>
<path d="M44.8722 36.3229C44.8692 35.5854 45.0834 34.8637 45.4874 34.2492C45.8915 33.6346 46.4673 33.1548 47.1419 32.8705C47.8165 32.5863 48.5596 32.5104 49.2771 32.6524C49.9945 32.7944 50.654 33.1481 51.172 33.6685C51.69 34.1889 52.0432 34.8527 52.187 35.5757C52.3306 36.2988 52.2584 37.0486 51.9792 37.7302C51.7001 38.4117 51.2268 38.9945 50.6191 39.4045C50.0114 39.8145 49.2967 40.0334 48.5656 40.0334C48.0803 40.0389 47.5987 39.9469 47.1491 39.7626C46.6995 39.5783 46.2907 39.3054 45.9469 38.9599C45.603 38.6145 45.3309 38.2034 45.1463 37.7506C44.9618 37.2978 44.8686 36.8125 44.8722 36.3229ZM50.1684 36.3229C50.1597 36.0051 50.0583 35.6968 49.8768 35.4368C49.6954 35.1768 49.442 34.9764 49.1482 34.8609C48.8546 34.7453 48.5336 34.7196 48.2255 34.787C47.9174 34.8545 47.6359 35.012 47.4161 35.24C47.1962 35.4679 47.0479 35.7561 46.9896 36.0687C46.9313 36.3811 46.9657 36.704 47.0884 36.997C47.211 37.2899 47.4166 37.5399 47.6793 37.7156C47.9421 37.8913 48.2503 37.985 48.5656 37.985C48.7815 37.9908 48.9963 37.9514 49.1963 37.8694C49.3964 37.7873 49.5774 37.6643 49.7281 37.5082C49.8786 37.352 49.9955 37.166 50.0713 36.9621C50.1471 36.7581 50.1802 36.5405 50.1684 36.3229Z" fill="#080829"/>
<path d="M60.5912 32.8084V39.4824C60.5912 41.8438 58.7653 42.8421 56.9119 42.8421C56.2593 42.8914 55.6059 42.7584 55.0233 42.4578C54.4407 42.1572 53.9514 41.7006 53.6091 41.1381L55.3928 40.0979C55.5367 40.3912 55.766 40.6331 56.0499 40.7913C56.3338 40.9495 56.6589 41.0165 56.9816 40.9833C57.1878 41.0121 57.3978 40.9938 57.5961 40.9297C57.7944 40.8656 57.9758 40.7574 58.127 40.613C58.2782 40.4686 58.3953 40.2918 58.4696 40.0955C58.5439 39.8994 58.5734 39.6888 58.5562 39.4795V38.837C58.3114 39.1391 57.9998 39.3791 57.6464 39.5378C57.293 39.6965 56.9076 39.7694 56.5212 39.7508C55.6017 39.7215 54.7297 39.3326 54.0895 38.6662C53.4494 37.9998 53.0915 37.1083 53.0915 36.1805C53.0915 35.2527 53.4494 34.3612 54.0895 33.6949C54.7297 33.0285 55.6017 32.6395 56.5212 32.6103C56.9076 32.5916 57.293 32.6645 57.6464 32.8232C57.9998 32.9819 58.3114 33.2219 58.5562 33.5241V32.807L60.5912 32.8084ZM58.5569 36.1816C58.571 35.8418 58.4838 35.5054 58.3068 35.216C58.1298 34.9264 57.8709 34.697 57.5635 34.5572C57.2561 34.4174 56.9142 34.3736 56.5819 34.4314C56.2496 34.4892 55.942 34.6459 55.6988 34.8816C55.4556 35.1172 55.2879 35.4207 55.2171 35.7533C55.1465 36.0859 55.176 36.4322 55.3021 36.7477C55.4282 37.0631 55.645 37.3333 55.9246 37.5235C56.2042 37.7136 56.5338 37.815 56.871 37.8146C57.0907 37.8301 57.3111 37.799 57.5181 37.7233C57.7252 37.6476 57.9142 37.529 58.073 37.3752C58.2318 37.2213 58.3569 37.0356 58.4403 36.83C58.5236 36.6245 58.5633 36.4036 58.5569 36.1816Z" fill="#080829"/>
<path d="M61.7752 36.3229C61.7723 35.5854 61.9864 34.8637 62.3905 34.2492C62.7945 33.6346 63.3703 33.1548 64.0449 32.8705C64.7196 32.5863 65.4626 32.5104 66.18 32.6524C66.8975 32.7944 67.557 33.1481 68.075 33.6685C68.593 34.1889 68.9462 34.8527 69.0899 35.5757C69.2337 36.2988 69.1614 37.0486 68.8823 37.7302C68.6032 38.4117 68.1298 38.9945 67.5221 39.4045C66.9144 39.8145 66.1998 40.0334 65.4686 40.0334C64.9833 40.0389 64.5018 39.9469 64.0521 39.7626C63.6025 39.5783 63.1938 39.3054 62.8499 38.9599C62.5061 38.6145 62.2339 38.2034 62.0494 37.7506C61.8648 37.2978 61.7716 36.8125 61.7752 36.3229ZM67.0714 36.3229C67.0627 36.0051 66.9613 35.6968 66.7798 35.4368C66.5984 35.1768 66.345 34.9764 66.0513 34.8609C65.7576 34.7453 65.4366 34.7196 65.1285 34.787C64.8204 34.8545 64.5389 35.012 64.319 35.24C64.0993 35.4679 63.951 35.7561 63.8927 36.0687C63.8344 36.3811 63.8687 36.704 63.9914 36.997C64.1141 37.2899 64.3196 37.5399 64.5824 37.7156C64.8451 37.8913 65.1534 37.985 65.4686 37.985C65.6845 37.9908 65.8993 37.9514 66.0994 37.8694C66.2994 37.7873 66.4805 37.6643 66.631 37.5082C66.7816 37.352 66.8985 37.166 66.9743 36.9621C67.0501 36.7581 67.0832 36.5405 67.0714 36.3229Z" fill="#080829"/>
<path d="M70.1369 30.9248C70.1369 30.6745 70.2104 30.4299 70.3483 30.2219C70.4861 30.0138 70.6818 29.8516 70.9112 29.7558C71.1407 29.6601 71.3927 29.6351 71.6363 29.6838C71.8791 29.7327 72.103 29.8532 72.2782 30.0301C72.4535 30.207 72.5732 30.4325 72.6217 30.6779C72.6696 30.9233 72.645 31.1777 72.5499 31.4089C72.4549 31.6401 72.2944 31.8378 72.0882 31.9768C71.8819 32.1158 71.6391 32.19 71.3913 32.19C71.0598 32.1866 70.7423 32.0523 70.5079 31.8157C70.2734 31.5792 70.1402 31.2593 70.1369 30.9248ZM70.348 32.8084H72.4394V39.8374H70.3452L70.348 32.8084Z" fill="#080829"/>
<path d="M81.4664 36.3229C81.4903 36.7874 81.4235 37.2522 81.2686 37.6905C81.1145 38.1288 80.8751 38.5319 80.5661 38.8767C80.2564 39.2215 79.8826 39.5013 79.4652 39.6998C79.0478 39.8982 78.5959 40.0116 78.1355 40.0333C77.7484 40.0546 77.3605 39.9887 77.0015 39.8404C76.6425 39.692 76.3208 39.465 76.0597 39.1757V42.6483H73.9691V32.8084H76.0597V33.4687C76.3208 33.1796 76.6432 32.9526 77.0022 32.8045C77.3612 32.6562 77.7484 32.5904 78.1355 32.6117C78.5966 32.6334 79.0485 32.7467 79.4652 32.9452C79.8826 33.1437 80.2571 33.4234 80.5661 33.7684C80.8758 34.1133 81.1152 34.5166 81.2693 34.955C81.4235 35.3933 81.491 35.8582 81.4664 36.3229ZM79.3758 36.3229C79.3673 35.9939 79.2632 35.6747 79.0766 35.4051C78.8894 35.1356 78.6275 34.9277 78.3234 34.8076C78.0201 34.6874 77.6878 34.6602 77.3689 34.7295C77.0501 34.7987 76.7587 34.9613 76.5306 35.1969C76.3025 35.4325 76.1491 35.7307 76.0885 36.054C76.028 36.3773 76.0632 36.7115 76.1899 37.0147C76.3166 37.3179 76.5292 37.5767 76.8009 37.7586C77.0726 37.9405 77.3922 38.0376 77.7181 38.0375C77.9419 38.0476 78.1658 38.0098 78.3741 37.9266C78.5825 37.8434 78.7711 37.7167 78.9281 37.5548C79.0844 37.3928 79.2054 37.1994 79.2822 36.9871C79.3596 36.7749 79.3913 36.5484 79.3758 36.3229Z" fill="#080829"/>
<path d="M87.9177 37.728C87.9177 39.3446 86.5247 40.0333 85.0197 40.0333C84.4116 40.0889 83.8013 39.9592 83.267 39.661C82.7327 39.3627 82.2991 38.9098 82.0232 38.3606L83.8344 37.3204C83.9076 37.5743 84.0652 37.7951 84.2799 37.9461C84.4953 38.097 84.7558 38.1689 85.0169 38.1497C85.5181 38.1497 85.7694 37.9949 85.7694 37.7145C85.7694 36.9406 82.3407 37.3488 82.3407 34.9171C82.3407 33.3842 83.6232 32.6117 85.0725 32.6117C85.6174 32.5943 86.1566 32.7247 86.6345 32.9891C87.1125 33.2537 87.5116 33.6426 87.7896 34.1155L86.0059 35.0853C85.9278 34.9012 85.7976 34.7444 85.6314 34.6344C85.4653 34.5244 85.271 34.4662 85.0725 34.4669C84.71 34.4669 84.4869 34.6089 84.4869 34.8603C84.4897 35.6619 87.9177 35.1272 87.9177 37.728Z" fill="#080829"/>
<path d="M95.5545 32.8084V39.8374H93.4638V39.1764C93.2224 39.4681 92.9162 39.6979 92.5699 39.847C92.2236 39.9961 91.8477 40.0602 91.4718 40.0341C90.064 40.0341 88.8673 39.0223 88.8673 37.1231V32.8084H90.9579V36.8142C90.9403 36.9816 90.9593 37.1509 91.0135 37.3102C91.067 37.4695 91.155 37.615 91.2705 37.7367C91.3859 37.8583 91.526 37.9531 91.6815 38.0145C91.8364 38.0759 92.0032 38.1025 92.1701 38.0922C92.9366 38.0922 93.466 37.6428 93.466 36.6445V32.8105L95.5545 32.8084Z" fill="#080829"/>
<path d="M107.542 35.5213V39.8367H105.451V35.7037C105.451 35.0008 105.117 34.5514 104.448 34.5514C103.751 34.5514 103.361 35.0435 103.361 35.8727V39.8367H101.271V35.7037C101.271 35.0008 100.937 34.5514 100.267 34.5514C99.5703 34.5514 99.1803 35.0435 99.1803 35.8727V39.8367H97.0897V32.8077H99.1803V33.4538C99.3971 33.1671 99.6815 32.9398 100.007 32.7926C100.334 32.6454 100.692 32.5829 101.048 32.611C101.405 32.5933 101.762 32.6695 102.082 32.8319C102.401 32.9945 102.674 33.2378 102.873 33.5382C103.105 33.2239 103.412 32.974 103.765 32.8118C104.118 32.6497 104.507 32.5806 104.894 32.611C106.494 32.6117 107.542 33.764 107.542 35.5213Z" fill="#080829"/>
<path d="M109.31 32.7651C110.167 32.7651 110.862 32.0644 110.862 31.2002C110.862 30.336 110.167 29.6354 109.31 29.6354C108.454 29.6354 107.759 30.336 107.759 31.2002C107.759 32.0644 108.454 32.7651 109.31 32.7651Z" fill="#080829"/>
</svg>
