<svg width="126" height="71" viewBox="0 0 126 71" fill="none" xmlns="http://www.w3.org/2000/svg">
<path d="M30.6145 28.9181V26.2154H22.1661V44.7846H30.6145V42.0819C28.8839 42.0819 27.2241 41.3884 26.0003 40.154C24.7766 38.9197 24.0891 37.2456 24.0891 35.5C24.0891 33.7544 24.7766 32.0802 26.0003 30.8459C27.2241 29.6115 28.8839 28.9181 30.6145 28.9181Z" fill="#080829"/>
<path d="M30.6148 28.9181V42.0819C32.3455 42.0819 34.0052 41.3884 35.229 40.1541C36.4528 38.9197 37.1402 37.2456 37.1402 35.5C37.1402 33.7544 36.4528 32.0802 35.229 30.8459C34.0052 29.6115 32.3455 28.9181 30.6148 28.9181Z" fill="#080829"/>
<path d="M41.8811 30.5716H43.7725V39.7608H41.8811V30.5716Z" fill="#080829"/>
<path d="M44.832 36.6129C44.832 35.9518 45.0266 35.3055 45.3912 34.7561C45.7556 34.2066 46.2737 33.7787 46.8796 33.5266C47.4856 33.2745 48.1521 33.2095 48.7947 33.3398C49.4373 33.4703 50.027 33.7901 50.4892 34.2589C50.9513 34.7278 51.2651 35.3244 51.3907 35.9733C51.5162 36.6222 51.448 37.2941 51.1945 37.9039C50.9411 38.5135 50.5139 39.0336 49.9671 39.3981C49.4203 39.7627 48.7785 39.9553 48.123 39.9515C47.6883 39.955 47.2573 39.8708 46.8552 39.704C46.4531 39.5371 46.0881 39.2911 45.7815 38.9801C45.4751 38.6692 45.2332 38.2995 45.0701 37.8931C44.9071 37.4866 44.8261 37.0514 44.832 36.6129ZM49.5732 36.6129C49.5657 36.3279 49.4751 36.0513 49.3127 35.818C49.1502 35.5846 48.9233 35.4047 48.66 35.3009C48.3968 35.1969 48.109 35.1735 47.8327 35.2338C47.5565 35.294 47.3039 35.435 47.1066 35.6392C46.9093 35.8434 46.7761 36.1017 46.7237 36.3819C46.6711 36.6621 46.7018 36.9517 46.8116 37.2144C46.9214 37.4771 47.1056 37.7014 47.3411 37.859C47.5766 38.0167 47.8529 38.1008 48.1356 38.1009C48.3282 38.1048 48.5193 38.0684 48.6972 37.9943C48.8752 37.9203 49.036 37.8099 49.1697 37.6703C49.3034 37.5306 49.4071 37.3645 49.4744 37.1827C49.5417 37.0007 49.571 36.8068 49.5606 36.6129H49.5732Z" fill="#080829"/>
<path d="M58.8978 33.4651V39.4492C58.8978 41.5606 57.2585 42.4572 55.6004 42.4572C55.0155 42.5056 54.4288 42.3884 53.9064 42.1188C53.3841 41.8491 52.9467 41.4377 52.6434 40.931L54.2386 40.0025C54.3678 40.2654 54.5734 40.4823 54.828 40.6243C55.0825 40.7663 55.374 40.8267 55.6634 40.7974C55.8478 40.8203 56.035 40.8018 56.2115 40.7433C56.3879 40.6848 56.5494 40.5877 56.6844 40.4588C56.8194 40.33 56.9244 40.1727 56.992 39.9982C57.0597 39.8237 57.0883 39.6362 57.0757 39.4492V38.8706C56.8556 39.1397 56.5763 39.3534 56.26 39.4947C55.9438 39.636 55.5992 39.701 55.2536 39.6845C54.4176 39.6845 53.6157 39.3495 53.0246 38.7532C52.4334 38.157 52.1012 37.3482 52.1012 36.5049C52.1012 35.6616 52.4334 34.8528 53.0246 34.2566C53.6157 33.6602 54.4176 33.3252 55.2536 33.3252C55.5992 33.3087 55.9438 33.3738 56.26 33.515C56.5763 33.6563 56.8556 33.87 57.0757 34.1392V33.5033L58.8978 33.4651ZM57.0757 36.4858C57.0883 36.1816 57.0103 35.8805 56.8519 35.6213C56.6934 35.362 56.4618 35.1566 56.1866 35.0313C55.9115 34.9059 55.6055 34.8665 55.3079 34.918C55.0104 34.9695 54.7349 35.1096 54.5169 35.3203C54.2989 35.531 54.1485 35.8026 54.0847 36.1003C54.0211 36.398 54.0472 36.708 54.1596 36.9906C54.2721 37.2732 54.4657 37.5155 54.7157 37.6862C54.9658 37.8568 55.2607 37.9482 55.5625 37.9484C55.7596 37.9628 55.9574 37.9352 56.1431 37.8677C56.3289 37.8001 56.4986 37.694 56.6412 37.5561C56.7838 37.4183 56.8962 37.2518 56.971 37.0674C57.0458 36.8831 57.0815 36.6849 57.0757 36.4858Z" fill="#080829"/>
<path d="M59.9634 36.6129C59.9634 35.9523 60.1578 35.3066 60.5217 34.7574C60.8857 34.2082 61.403 33.7803 62.0082 33.5278C62.6134 33.2754 63.2793 33.2095 63.9215 33.3389C64.5638 33.4683 65.1535 33.7869 65.6162 34.2544C66.0789 34.722 66.3936 35.3175 66.5206 35.9655C66.6476 36.6136 66.5812 37.2851 66.3297 37.895C66.0782 38.505 65.6529 39.0259 65.1078 39.392C64.5626 39.7582 63.9221 39.9528 63.2672 39.9516C62.8316 39.9559 62.3995 39.8724 61.9964 39.706C61.5933 39.5396 61.2271 39.2938 60.9194 38.9828C60.6116 38.6719 60.3687 38.3021 60.2044 37.8951C60.0404 37.4882 59.9583 37.0523 59.9634 36.6129ZM64.7046 36.6129C64.6971 36.3277 64.6064 36.0509 64.4437 35.8174C64.2811 35.5839 64.0536 35.4041 63.79 35.3004C63.5265 35.1966 63.2384 35.1736 62.9619 35.2344C62.6854 35.295 62.4329 35.4367 62.2359 35.6416C62.0388 35.8464 61.9061 36.1054 61.8544 36.3859C61.8027 36.6665 61.8341 36.9562 61.9449 37.2188C62.0557 37.4815 62.2409 37.7053 62.4772 37.8622C62.7135 38.0191 62.9904 38.1022 63.2734 38.101C63.4659 38.1049 63.6571 38.0686 63.835 37.9944C64.0129 37.9203 64.1737 37.81 64.3075 37.6703C64.4412 37.5307 64.5449 37.3646 64.6122 37.1828C64.6795 37.0008 64.7088 36.8068 64.6983 36.6129H64.7046Z" fill="#080829"/>
<path d="M67.4473 31.7799C67.4473 31.5561 67.5131 31.3372 67.6364 31.151C67.7597 30.9649 67.935 30.8198 68.14 30.7341C68.3451 30.6484 68.5708 30.6261 68.7884 30.6697C69.0061 30.7134 69.2061 30.8212 69.3631 30.9795C69.52 31.1378 69.6269 31.3396 69.6702 31.5591C69.7135 31.7787 69.6913 32.0062 69.6063 32.2131C69.5214 32.42 69.3775 32.5967 69.193 32.7211C69.0085 32.8455 68.7915 32.9119 68.5695 32.9119C68.2729 32.9086 67.9893 32.7882 67.7796 32.5767C67.5698 32.3651 67.4505 32.0792 67.4473 31.7799ZM67.6301 33.4651H69.5215V39.7609H67.6301V33.4651Z" fill="#080829"/>
<path d="M77.6167 36.613C77.6378 37.0317 77.5766 37.4505 77.4372 37.8453C77.2971 38.2401 77.081 38.6031 76.8016 38.9134C76.5221 39.2237 76.1842 39.4751 75.8084 39.6533C75.4318 39.8315 75.0249 39.9329 74.6096 39.9516C74.2569 39.9753 73.9036 39.9184 73.5763 39.7851C73.2489 39.6519 72.9554 39.4457 72.7182 39.1822V42.2919H70.8268V33.4651H72.7182V34.0566C72.9561 33.7937 73.2496 33.5885 73.577 33.4564C73.9043 33.3242 74.2576 33.2685 74.6096 33.2935C75.0228 33.3122 75.4289 33.413 75.8041 33.5899C76.1786 33.767 76.5158 34.0167 76.7945 34.3249C77.074 34.6332 77.2901 34.9939 77.4316 35.3865C77.5724 35.7791 77.6357 36.1958 77.6167 36.613ZM75.7253 36.613C75.7183 36.3176 75.6239 36.0311 75.4557 35.7892C75.2875 35.5473 75.0524 35.3609 74.7799 35.2533C74.5068 35.1458 74.2084 35.1218 73.9226 35.1845C73.6361 35.2472 73.3742 35.3936 73.1708 35.6056C72.9667 35.8176 72.8287 36.0855 72.7752 36.3761C72.7217 36.6664 72.7541 36.9664 72.8688 37.2384C72.9836 37.5102 73.175 37.742 73.4193 37.9045C73.6642 38.0671 73.9507 38.1531 74.2436 38.152C74.4442 38.1605 74.6448 38.1263 74.8313 38.0514C75.0179 37.9764 75.1868 37.8626 75.3262 37.7173C75.4663 37.572 75.574 37.3985 75.6429 37.2082C75.7119 37.0178 75.7401 36.8151 75.7253 36.613Z" fill="#080829"/>
<path d="M83.3733 37.872C83.3733 39.322 82.1119 39.9389 80.7758 39.9389C80.2303 39.9883 79.6834 39.8718 79.204 39.6042C78.7254 39.3367 78.3375 38.9304 78.0897 38.4381L79.7165 37.5096C79.7805 37.7365 79.9206 37.9342 80.1121 38.0696C80.3035 38.2051 80.5358 38.2701 80.7695 38.2537C81.2172 38.2537 81.4439 38.1137 81.4439 37.8593C81.4439 37.1662 78.3734 37.535 78.3734 35.3538C78.3734 33.9802 79.5208 33.2934 80.8195 33.2934C81.3136 33.271 81.8036 33.3841 82.2393 33.6203C82.6743 33.8566 83.0375 34.2072 83.2909 34.6352L81.6649 35.5001C81.5924 35.336 81.4755 35.1965 81.3263 35.0983C81.1778 35.0001 81.0039 34.9475 80.8258 34.9468C80.4985 34.9468 80.3028 35.074 80.3028 35.2965C80.3028 36.0215 83.3733 35.5446 83.3733 37.872Z" fill="#080829"/>
<path d="M90.2265 33.4651V39.7608H88.3351V39.1694C88.1197 39.4312 87.8473 39.6384 87.539 39.7743C87.23 39.9102 86.8935 39.9709 86.5571 39.9516C85.2964 39.9516 84.218 39.0422 84.218 37.3443V33.4651H86.1094V37.0581C86.0946 37.2083 86.1122 37.36 86.1615 37.5027C86.21 37.6453 86.2889 37.7755 86.3923 37.8845C86.4965 37.9932 86.6225 38.0781 86.7619 38.1331C86.9013 38.188 87.0505 38.2118 87.2004 38.2028C87.8811 38.2028 88.3605 37.7958 88.3605 36.9309V33.4651H90.2265Z" fill="#080829"/>
<path d="M100.944 35.8943V39.7608H99.0529V36.0596C99.0529 35.4237 98.7565 35.0294 98.1575 35.0294C97.5592 35.0294 97.1805 35.4682 97.1805 36.2123V39.7608H95.2891V36.0596C95.2891 35.4237 94.9927 35.0294 94.3937 35.0294C93.7947 35.0294 93.4167 35.4682 93.4167 36.2123V39.7608H91.5253V33.4651H93.4167V34.0437C93.6131 33.7881 93.8679 33.5856 94.1614 33.4546C94.4535 33.3236 94.7745 33.2682 95.0934 33.2933C95.4137 33.2765 95.7325 33.3439 96.0183 33.4889C96.3048 33.6338 96.5491 33.8513 96.7265 34.12C96.9348 33.8392 97.2093 33.6162 97.5261 33.4716C97.8422 33.327 98.1899 33.2657 98.5362 33.2933C100.012 33.2933 100.944 34.3235 100.944 35.8943Z" fill="#080829"/>
<path d="M102.533 33.4269C103.299 33.4269 103.92 32.8006 103.92 32.0279C103.92 31.2553 103.299 30.6289 102.533 30.6289C101.767 30.6289 101.146 31.2553 101.146 32.0279C101.146 32.8006 101.767 33.4269 102.533 33.4269Z" fill="#080829"/>
</svg>
