<svg width="126" height="71" viewBox="0 0 126 71" fill="none" xmlns="http://www.w3.org/2000/svg">
<path d="M48.0166 40.7469C47.5979 40.7698 47.1838 40.6497 46.841 40.4061C46.6978 40.2991 46.5826 40.1584 46.5053 39.9964C46.4281 39.8343 46.391 39.6557 46.3976 39.476V32.8943C46.3941 32.8665 46.3971 32.8382 46.4061 32.8116C46.4152 32.7851 46.4301 32.7609 46.4497 32.7411C46.4694 32.7212 46.4934 32.7062 46.5197 32.697C46.546 32.6879 46.5741 32.6849 46.6017 32.6884H47.7843C47.918 32.6884 47.9814 32.7594 47.9814 32.8943V38.9648C47.9814 39.2346 48.101 39.3695 48.3474 39.3695C48.4518 39.3739 48.5563 39.3619 48.6571 39.334C48.7979 39.334 48.8753 39.3766 48.8824 39.5044L48.988 40.3919C48.993 40.4178 48.9925 40.4445 48.9865 40.4702C48.9805 40.4958 48.9691 40.5199 48.9531 40.5407C48.9371 40.5616 48.9169 40.5787 48.8937 40.5911C48.8706 40.6034 48.8451 40.6105 48.819 40.612C48.56 40.6983 48.2893 40.7438 48.0166 40.7469Z" fill="#080829"/>
<path d="M54.6684 39.9872C54.0743 40.4825 53.3276 40.7533 52.5567 40.7533C51.7859 40.7533 51.0392 40.4825 50.445 39.9872C49.9227 39.4554 49.6297 38.7371 49.6297 37.9886C49.6297 37.24 49.9227 36.5217 50.445 35.9899C51.0404 35.4973 51.7866 35.228 52.5567 35.228C53.3269 35.228 54.0731 35.4973 54.6684 35.9899C55.1787 36.5266 55.4636 37.2414 55.4636 37.985C55.4636 38.7286 55.1787 39.4434 54.6684 39.9801V39.9872ZM51.5571 39.05C51.8329 39.302 52.1917 39.4415 52.5637 39.4415C52.9358 39.4415 53.2946 39.302 53.5703 39.05C53.8199 38.7606 53.9574 38.3899 53.9574 38.0063C53.9574 37.6227 53.8199 37.2521 53.5703 36.9626C53.2946 36.7107 52.9358 36.5711 52.5637 36.5711C52.1917 36.5711 51.8329 36.7107 51.5571 36.9626C51.3076 37.2521 51.1701 37.6227 51.1701 38.0063C51.1701 38.3899 51.3076 38.7606 51.5571 39.05Z" fill="#080829"/>
<path d="M61.9751 35.4077C62.1088 35.4077 62.1722 35.4787 62.1722 35.6136V40.7043C62.1844 41.0478 62.1207 41.3899 61.9856 41.7055C61.8504 42.0212 61.6472 42.3025 61.3909 42.529C60.8217 43.0185 60.0897 43.2722 59.3425 43.239C58.6675 43.2629 58.0016 43.077 57.4349 42.7065C57.1929 42.5462 56.9861 42.3374 56.8275 42.0931C56.6689 41.8489 56.5617 41.5743 56.5128 41.2865C56.5128 41.1445 56.5128 41.0806 56.7028 41.0806H57.8854C57.9356 41.0823 57.9842 41.0986 58.0255 41.1276C58.0666 41.1566 58.0987 41.1969 58.1177 41.2439C58.1943 41.4595 58.3472 41.639 58.5471 41.748C58.7905 41.8747 59.0615 41.9381 59.3354 41.9326C59.5007 41.9417 59.6661 41.9175 59.822 41.8614C59.9779 41.8054 60.1212 41.7185 60.2435 41.606C60.3551 41.4883 60.4421 41.3489 60.4989 41.1964C60.5557 41.0439 60.5814 40.8813 60.5743 40.7185V40.2712C60.1509 40.5853 59.6356 40.7477 59.1102 40.7327C58.7425 40.7462 58.3758 40.6845 58.0323 40.5516C57.6888 40.4186 57.3754 40.2169 57.1111 39.9588C56.6036 39.4292 56.3199 38.7215 56.3199 37.985C56.3199 37.2485 56.6036 36.5408 57.1111 36.0112C57.3767 35.7553 57.6904 35.5556 58.0338 35.4239C58.3771 35.2922 58.7431 35.2312 59.1102 35.2444C59.6508 35.23 60.1799 35.4029 60.6095 35.7343V35.6207C60.6063 35.5935 60.6091 35.5659 60.6178 35.5399C60.6264 35.5139 60.6407 35.4903 60.6596 35.4705C60.6784 35.4508 60.7014 35.4356 60.7269 35.4259C60.7523 35.4163 60.7795 35.4125 60.8066 35.4148L61.9751 35.4077ZM59.2439 39.4689C59.4253 39.4746 59.6056 39.44 59.7723 39.3676C59.9389 39.2952 60.0877 39.1868 60.2083 39.05C60.4423 38.7452 60.5693 38.3705 60.5693 37.985C60.5693 37.5994 60.4423 37.2249 60.2083 36.92C60.0881 36.785 59.9402 36.6782 59.7748 36.6071C59.6095 36.5359 59.4306 36.5022 59.251 36.5082C59.0675 36.5024 58.885 36.5368 58.7161 36.6091C58.5471 36.6815 58.3958 36.79 58.2725 36.9271C58.0133 37.2187 57.8769 37.6007 57.8924 37.9921C57.8797 38.3796 58.013 38.7576 58.2655 39.05C58.389 39.1867 58.5404 39.295 58.7093 39.3673C58.8782 39.4396 59.0606 39.4742 59.2439 39.4689Z" fill="#080829"/>
<path d="M68.247 39.9872C67.6516 40.4799 66.9053 40.7491 66.1352 40.7491C65.3651 40.7491 64.6189 40.4799 64.0235 39.9872C63.5128 39.4493 63.2277 38.7333 63.2277 37.9885C63.2277 37.2437 63.5128 36.5278 64.0235 35.9899C64.6194 35.4985 65.3655 35.23 66.1352 35.23C66.905 35.23 67.651 35.4985 68.247 35.9899C68.7572 36.5266 69.042 37.2414 69.042 37.985C69.042 38.7286 68.7572 39.4434 68.247 39.9801V39.9872ZM65.1286 39.05C65.2636 39.1795 65.4227 39.2807 65.5967 39.3477C65.7706 39.4147 65.9561 39.4462 66.1423 39.4405C66.3272 39.4453 66.5114 39.4133 66.6841 39.3463C66.8568 39.2793 67.0148 39.1786 67.1489 39.05C67.3943 38.7586 67.5291 38.3887 67.5291 38.0063C67.5291 37.6239 67.3943 37.254 67.1489 36.9626C67.0148 36.8339 66.8568 36.7333 66.6841 36.6662C66.5114 36.5993 66.3272 36.5673 66.1423 36.5721C65.9561 36.5663 65.7706 36.5979 65.5967 36.6649C65.4227 36.7319 65.2636 36.8331 65.1286 36.9626C64.8831 37.254 64.7483 37.6239 64.7483 38.0063C64.7483 38.3887 64.8831 38.7586 65.1286 39.05Z" fill="#080829"/>
<path d="M71.5835 34.2007C71.3976 34.365 71.1583 34.4555 70.9112 34.4555C70.6642 34.4555 70.4248 34.365 70.2389 34.2007C70.1546 34.1204 70.0874 34.0236 70.0414 33.9162C69.9955 33.8087 69.9718 33.6929 69.9718 33.5759C69.9718 33.4589 69.9955 33.3432 70.0414 33.2357C70.0874 33.1283 70.1546 33.0314 70.2389 32.9511C70.4269 32.791 70.6649 32.7031 70.9112 32.7031C71.1576 32.7031 71.3955 32.791 71.5835 32.9511C71.6679 33.0314 71.7348 33.1283 71.7813 33.2357C71.827 33.3432 71.8503 33.4589 71.8503 33.5759C71.8503 33.6929 71.827 33.8087 71.7813 33.9162C71.7348 34.0236 71.6679 34.1204 71.5835 34.2007ZM71.7313 40.7469C71.3132 40.7677 70.8993 40.6477 70.5558 40.4061C70.415 40.2975 70.3014 40.1564 70.2256 39.9945C70.1496 39.8327 70.1132 39.6549 70.1193 39.476V35.6136C70.1159 35.5858 70.1188 35.5575 70.1279 35.5309C70.1369 35.5044 70.1519 35.4803 70.1715 35.4604C70.1912 35.4405 70.2151 35.4255 70.2415 35.4164C70.2678 35.4072 70.2958 35.4043 70.3234 35.4077H71.506C71.6398 35.4077 71.7031 35.4787 71.7031 35.6136V38.9648C71.7031 39.2346 71.8228 39.3695 72.0621 39.3695C72.1691 39.3734 72.2754 39.3614 72.3789 39.334C72.5197 39.334 72.5971 39.3766 72.6041 39.5044L72.7097 40.3919C72.7147 40.4178 72.714 40.4445 72.7083 40.4702C72.702 40.4958 72.6907 40.5199 72.6745 40.5407C72.6591 40.5616 72.6386 40.5788 72.6154 40.5911C72.5922 40.6034 72.5668 40.6105 72.5408 40.612C72.2796 40.6989 72.0065 40.7444 71.7313 40.7469Z" fill="#080829"/>
<path d="M77.0599 35.2373C77.4295 35.2226 77.7976 35.2829 78.1439 35.4146C78.4895 35.5463 78.8056 35.7468 79.0731 36.0041C79.5707 36.5429 79.8474 37.2521 79.8474 37.9885C79.8474 38.725 79.5707 39.4342 79.0731 39.973C78.807 40.2326 78.491 40.4351 78.1453 40.568C77.799 40.7011 77.4302 40.762 77.0599 40.7469C76.5327 40.7588 76.016 40.5967 75.5887 40.2854V42.8485C75.5887 42.9834 75.5183 43.0473 75.3846 43.0473H74.202C74.1753 43.0524 74.1471 43.0508 74.1211 43.0426C74.095 43.0344 74.0711 43.0199 74.0514 43.0003C74.0324 42.9807 74.0176 42.9566 74.0099 42.9302C74.0014 42.9037 74 42.8757 74.0049 42.8485V37.0265C74.0134 36.9696 74.0084 36.9115 73.9901 36.8568C73.9725 36.8022 73.9423 36.7525 73.9015 36.7118C73.8613 36.6711 73.8121 36.6405 73.7579 36.6224C73.7037 36.6043 73.6459 36.5992 73.5896 36.6076H73.3573C73.2025 36.6076 73.125 36.5508 73.125 36.4372V35.5994C73.1215 35.5476 73.1356 35.496 73.1652 35.4534C73.1947 35.4108 73.2377 35.3796 73.2869 35.3651C73.5305 35.2759 73.7881 35.2325 74.0472 35.2373C74.3055 35.2142 74.5645 35.2695 74.7919 35.396C75.0186 35.5225 75.203 35.7144 75.3212 35.9473C75.5479 35.716 75.8189 35.5337 76.1181 35.4116C76.4172 35.2896 76.7375 35.2302 77.0599 35.2373ZM75.9618 39.05C76.0871 39.1823 76.2377 39.2876 76.4053 39.3596C76.5721 39.4315 76.7516 39.4685 76.9332 39.4685C77.1148 39.4685 77.2943 39.4315 77.4611 39.3596C77.628 39.2876 77.7793 39.1823 77.9046 39.05C78.1693 38.7526 78.3079 38.3629 78.2917 37.9637C78.31 37.5642 78.1707 37.1736 77.9046 36.8774C77.7793 36.7451 77.628 36.6398 77.4611 36.5678C77.2943 36.4959 77.1148 36.4589 76.9332 36.4589C76.7516 36.4589 76.5721 36.4959 76.4053 36.5678C76.2377 36.6398 76.0871 36.7451 75.9618 36.8774C75.7056 37.1789 75.5725 37.567 75.5887 37.9637C75.5747 38.3601 75.7077 38.7475 75.9618 39.05Z" fill="#080829"/>
<path d="M83.1698 40.7469C82.5377 40.7731 81.9112 40.6206 81.3608 40.3067C81.1398 40.1725 80.9518 39.9898 80.8103 39.7723C80.6688 39.5547 80.578 39.3078 80.5443 39.05C80.5443 38.908 80.5935 38.837 80.7484 38.837H81.7831C81.8324 38.8389 81.8803 38.8545 81.9211 38.8821C81.9619 38.9097 81.995 38.9481 82.0154 38.9932C82.1632 39.3766 82.5504 39.5683 83.1698 39.5683C83.3859 39.5782 83.6013 39.5343 83.7963 39.4405C83.8639 39.4098 83.9216 39.3612 83.9638 39.3C84.0061 39.2387 84.0307 39.167 84.0356 39.0926C84.0356 38.908 83.923 38.7802 83.6978 38.695C83.4303 38.6053 83.1543 38.5457 82.8742 38.5175C82.5419 38.4796 82.2132 38.4203 81.8887 38.34C81.5734 38.268 81.2862 38.1023 81.0651 37.8643C80.9349 37.7025 80.8392 37.5154 80.7836 37.3147C80.728 37.114 80.7139 36.9039 80.742 36.6975C80.7702 36.491 80.8406 36.2926 80.9483 36.1148C81.056 35.9368 81.1989 35.7832 81.3678 35.6633C81.8753 35.3373 82.4701 35.1785 83.0713 35.2089C83.6527 35.1891 84.2285 35.3342 84.7325 35.6278C84.9352 35.7439 85.1105 35.9041 85.2443 36.0969C85.3787 36.2898 85.4681 36.5103 85.5068 36.7425C85.5068 36.8845 85.4435 36.9555 85.3168 36.9555H84.275C84.2313 36.9581 84.1877 36.9473 84.1497 36.9245C84.1124 36.9017 84.0821 36.8679 84.0638 36.8277C83.9941 36.6595 83.8632 36.5248 83.6978 36.4514C83.5112 36.353 83.3029 36.304 83.0924 36.3094C82.8862 36.2981 82.6799 36.3395 82.4941 36.4301C82.4286 36.4556 82.3716 36.5004 82.3315 36.5586C82.2914 36.6168 82.2695 36.6857 82.2688 36.7567C82.2731 36.8538 82.3082 36.9469 82.3695 37.0223C82.43 37.0976 82.5131 37.1514 82.6067 37.1756C82.877 37.2783 83.1579 37.3498 83.4444 37.3886C83.7738 37.4323 84.1004 37.4939 84.4228 37.5732C84.7381 37.6452 85.0253 37.8109 85.2464 38.0489C85.3646 38.18 85.4561 38.3334 85.5153 38.5004C85.5744 38.6674 85.6004 38.8445 85.5913 39.0216C85.5976 39.267 85.5399 39.5098 85.4252 39.7264C85.3104 39.9429 85.1422 40.1257 84.9367 40.257C84.4108 40.5975 83.7942 40.7684 83.1698 40.7469Z" fill="#080829"/>
<path d="M93.0316 40.3919C93.0358 40.4171 93.0344 40.4429 93.0288 40.4677C93.0225 40.4925 93.0119 40.5158 92.9964 40.5363C92.9816 40.5568 92.9626 40.5741 92.9408 40.5871C92.919 40.6001 92.8951 40.6085 92.8697 40.612C92.6128 40.6966 92.3446 40.7421 92.0743 40.7469C91.8068 40.7749 91.5365 40.7327 91.2901 40.6244C91.0431 40.5162 90.8284 40.3457 90.6665 40.1292C90.1695 40.5604 89.5261 40.7816 88.8715 40.7469C88.5674 40.761 88.264 40.7108 87.9804 40.5996C87.6967 40.4883 87.4391 40.3184 87.2244 40.1008C87.0111 39.8728 86.8457 39.6037 86.738 39.3097C86.6303 39.0157 86.5824 38.7028 86.5979 38.3897V35.6136C86.5979 35.4787 86.6612 35.4077 86.795 35.4077H87.9775C88.1113 35.4077 88.1746 35.4787 88.1746 35.6136V38.1767C88.162 38.4961 88.2697 38.8083 88.4773 39.05C88.5808 39.1607 88.7068 39.2478 88.8462 39.3054C88.9855 39.3629 89.1362 39.3897 89.2868 39.3837C89.441 39.3905 89.5951 39.3664 89.7401 39.3128C89.8851 39.2592 90.0182 39.1771 90.1315 39.0713C90.2385 38.9598 90.3223 38.8273 90.3765 38.682C90.4314 38.5367 90.4553 38.3816 90.4483 38.2264V35.6136C90.4483 35.4787 90.5116 35.4077 90.6454 35.4077H91.842C91.9758 35.4077 92.0391 35.4787 92.0391 35.6136V38.9577C92.0391 39.2346 92.1588 39.3695 92.3911 39.3695C92.5002 39.3738 92.6093 39.3618 92.7149 39.334C92.7416 39.3265 92.7691 39.3251 92.7965 39.33C92.824 39.335 92.8493 39.3461 92.8718 39.3625C92.8944 39.3789 92.9127 39.4002 92.9253 39.4248C92.9387 39.4493 92.9457 39.4766 92.9472 39.5044L93.0316 40.3919Z" fill="#080829"/>
<path d="M104.217 40.3919C104.223 40.4173 104.224 40.4439 104.219 40.4695C104.213 40.4952 104.203 40.5195 104.187 40.5405C104.172 40.5615 104.152 40.5789 104.129 40.5912C104.106 40.6036 104.081 40.6107 104.055 40.612C103.793 40.6979 103.521 40.7433 103.245 40.7469C102.827 40.7687 102.413 40.6487 102.07 40.4061C101.921 40.3022 101.801 40.163 101.719 40.0007C101.636 39.8384 101.595 39.6582 101.598 39.476V37.8075C101.613 37.4892 101.507 37.177 101.303 36.9342C101.204 36.8233 101.082 36.7358 100.946 36.6781C100.809 36.6203 100.662 36.5939 100.514 36.6005C100.381 36.5955 100.249 36.6209 100.126 36.6751C100.005 36.7292 99.8969 36.8105 99.8103 36.9129C99.6245 37.1508 99.5295 37.4481 99.5428 37.7507V40.3706C99.5428 40.5055 99.4795 40.5765 99.3457 40.5765H98.1561C98.1287 40.58 98.1005 40.577 98.0745 40.5679C98.0477 40.5588 98.0238 40.5437 98.0041 40.5238C97.9844 40.504 97.9696 40.4799 97.9604 40.4533C97.9513 40.4268 97.9485 40.3985 97.952 40.3706V37.8075C97.9675 37.4926 97.8696 37.1827 97.6775 36.9342C97.5916 36.8299 97.4839 36.7459 97.3621 36.6882C97.241 36.6305 97.108 36.6006 96.9736 36.6005C96.83 36.5947 96.6871 36.6195 96.5533 36.6733C96.4196 36.7272 96.2992 36.8088 96.1993 36.9129C95.9979 37.1433 95.8945 37.4441 95.9106 37.7507V40.3706C95.9142 40.3985 95.9114 40.4268 95.9022 40.4533C95.8931 40.4799 95.8783 40.504 95.8586 40.5238C95.8388 40.5437 95.8149 40.5588 95.7889 40.5679C95.7621 40.577 95.734 40.58 95.7065 40.5765H94.5591C94.4254 40.5765 94.362 40.5055 94.362 40.3706V37.0265C94.3705 36.9696 94.3656 36.9115 94.3473 36.8568C94.3297 36.8022 94.2994 36.7525 94.2586 36.7119C94.2184 36.6712 94.1692 36.6406 94.115 36.6225C94.0608 36.6044 94.0031 36.5992 93.9467 36.6076H93.7145C93.5596 36.6076 93.4822 36.5508 93.4822 36.4372V35.5994C93.4786 35.5476 93.4927 35.496 93.5223 35.4534C93.5518 35.4108 93.5948 35.3796 93.6441 35.3651C93.8876 35.2759 94.1452 35.2325 94.4043 35.2373C94.6528 35.216 94.9026 35.2659 95.1244 35.3815C95.3461 35.4971 95.5305 35.6735 95.6572 35.8905C95.8945 35.6635 96.176 35.4883 96.4836 35.3759C96.7912 35.2635 97.1186 35.2164 97.4452 35.2373C97.7626 35.2217 98.0787 35.2817 98.3687 35.4125C98.6587 35.5433 98.9135 35.7411 99.1134 35.9899C99.3464 35.7345 99.6329 35.5345 99.9518 35.4044C100.271 35.2742 100.614 35.2172 100.958 35.2373C101.265 35.2228 101.572 35.2728 101.859 35.3839C102.146 35.4952 102.407 35.6652 102.626 35.8834C102.84 36.111 103.005 36.38 103.113 36.6741C103.221 36.9682 103.269 37.2814 103.252 37.5945V38.9648C103.252 39.2346 103.372 39.3695 103.597 39.3695C103.706 39.3746 103.816 39.3627 103.921 39.334C104.067 39.334 104.144 39.3908 104.153 39.5044L104.217 40.3919Z" fill="#080829"/>
<path d="M21.6762 34.4847C22.1956 32.3793 23.3984 30.5097 25.0929 29.1736C26.7876 27.8374 28.8767 27.1116 31.0277 27.1116C33.1787 27.1116 35.2678 27.8374 36.9624 29.1736C38.6571 30.5097 39.8599 32.3793 40.3791 34.4847H39.5345C38.1095 34.4636 36.7138 34.8931 35.5433 35.713C35.4758 35.7624 35.4052 35.8074 35.3321 35.8479H35.2336C35.1605 35.8074 35.09 35.7624 35.0224 35.713C33.8415 34.9121 32.4508 34.4843 31.0277 34.4843C29.6047 34.4843 28.2139 34.9121 27.033 35.713C26.9655 35.7624 26.895 35.8074 26.8218 35.8479H26.7233C26.6502 35.8074 26.5797 35.7624 26.5121 35.713C25.3416 34.8931 23.9459 34.4636 22.5209 34.4847H21.6762ZM38.014 38.9364C38.4476 38.5958 38.985 38.4176 39.5345 38.4323H40.6677V36.1532H39.5345C38.5668 36.1414 37.6211 36.4452 36.8385 37.0194C36.398 37.3469 35.8652 37.5236 35.318 37.5236C34.7709 37.5236 34.238 37.3469 33.7976 37.0194C32.995 36.456 32.0407 36.1538 31.0629 36.1538C30.0851 36.1538 29.1307 36.456 28.3282 37.0194C27.8878 37.3469 27.355 37.5236 26.8077 37.5236C26.2606 37.5236 25.7277 37.3469 25.2873 37.0194C24.495 36.4378 23.5358 36.1337 22.5561 36.1532H21.3876V38.4323H22.5209C23.0703 38.4176 23.6078 38.5958 24.0414 38.9364C24.8424 39.5002 25.7957 39.8026 26.7726 39.8026C27.7494 39.8026 28.7027 39.5002 29.5037 38.9364C29.9379 38.5968 30.475 38.4188 31.0242 38.4323C31.5738 38.4164 32.1116 38.5948 32.5446 38.9364C33.3471 39.4999 34.3015 39.802 35.2793 39.802C36.2571 39.802 37.2115 39.4999 38.014 38.9364ZM38.014 43.0118C38.4476 42.6712 38.985 42.493 39.5345 42.5077H40.6677V40.2286H39.5345C38.5668 40.2168 37.6211 40.5206 36.8385 41.0948C36.398 41.4223 35.8652 41.599 35.318 41.599C34.7709 41.599 34.238 41.4223 33.7976 41.0948C32.995 40.5314 32.0407 40.2292 31.0629 40.2292C30.0851 40.2292 29.1307 40.5314 28.3282 41.0948C27.8878 41.4223 27.355 41.599 26.8077 41.599C26.2606 41.599 25.7277 41.4223 25.2873 41.0948C24.495 40.5133 23.5358 40.2091 22.5561 40.2286H21.3876V42.5077H22.5209C23.0703 42.493 23.6078 42.6712 24.0414 43.0118C24.8424 43.5756 25.7957 43.878 26.7726 43.878C27.7494 43.878 28.7027 43.5756 29.5037 43.0118C29.9379 42.6722 30.475 42.4942 31.0242 42.5077C31.5738 42.4918 32.1116 42.6702 32.5446 43.0118C33.3471 43.5753 34.3015 43.8774 35.2793 43.8774C36.2571 43.8774 37.2115 43.5753 38.014 43.0118Z" fill="#080829"/>
</svg>
