<svg width="126" height="71" viewBox="0 0 126 71" fill="none" xmlns="http://www.w3.org/2000/svg">
<path d="M22.6906 44.6058H40.8473V26.3943H22.6906V44.6058ZM37.3526 33.7477H33.5159V29.8995H37.3526V33.7477ZM26.1846 29.8995H30.0233V37.2523H37.3526V41.1005H26.1846V29.8995ZM52.6708 26.3943C50.8753 26.3943 49.12 26.9283 47.6271 27.9289C46.1342 28.9295 44.9706 30.3515 44.2835 32.0154C43.5964 33.6793 43.4166 35.5101 43.7669 37.2765C44.1171 39.0428 44.9818 40.6653 46.2514 41.9388C47.521 43.2122 49.1387 44.0794 50.8997 44.4308C52.6607 44.7821 54.4861 44.6019 56.1449 43.9127C57.8038 43.2235 59.2216 42.0564 60.2192 40.5589C61.2168 39.0614 61.7491 37.301 61.7491 35.5C61.7464 33.0859 60.789 30.7715 59.0871 29.0644C57.3851 27.3574 55.0776 26.3971 52.6708 26.3943ZM52.6708 41.1005C51.5664 41.1005 50.4869 40.772 49.5687 40.1566C48.6504 39.5413 47.9348 38.6666 47.5122 37.6432C47.0895 36.6199 46.979 35.4938 47.1944 34.4074C47.4099 33.321 47.9417 32.3231 48.7226 31.5399C49.5034 30.7566 50.4983 30.2232 51.5815 30.0072C52.6646 29.791 53.7873 29.9019 54.8075 30.3259C55.8278 30.7498 56.6999 31.4676 57.3134 32.3886C57.9269 33.3096 58.2544 34.3923 58.2544 35.5C58.2522 36.9847 57.6632 38.4079 56.6165 39.4577C55.5699 40.5075 54.151 41.0982 52.6708 41.1005ZM94.236 26.3943C92.4401 26.3941 90.6853 26.928 89.1917 27.9285C87.6988 28.929 86.5351 30.3511 85.8478 32.0149C85.1611 33.6788 84.9806 35.5097 85.331 37.276C85.6814 39.0424 86.5457 40.665 87.8156 41.9385C89.0848 43.212 90.703 44.0794 92.4642 44.4307C94.2246 44.7822 96.0502 44.6019 97.7095 43.9127C99.368 43.2235 100.786 42.0564 101.783 40.559C102.781 39.0615 103.314 37.301 103.314 35.5C103.311 33.086 102.354 30.7717 100.652 29.0646C98.9496 27.3576 96.6427 26.3973 94.236 26.3943ZM94.236 41.1005C93.1317 41.1006 92.0522 40.7723 91.1334 40.157C90.2153 39.5417 89.4996 38.667 89.077 37.6437C88.6537 36.6204 88.5433 35.4943 88.7585 34.4079C88.9744 33.3214 89.506 32.3235 90.2868 31.5401C91.0676 30.7569 92.0628 30.2234 93.1459 30.0072C94.2289 29.791 95.3516 29.9019 96.3716 30.3258C97.3923 30.7497 98.2644 31.4675 98.8774 32.3885C99.4912 33.3095 99.8189 34.3923 99.8189 35.5C99.8168 36.9845 99.2278 38.4076 98.1809 39.4574C97.1347 40.5072 95.7161 41.0981 94.236 41.1005ZM73.453 26.3943C71.6572 26.3943 69.9023 26.9283 68.4093 27.9289C66.9164 28.9295 65.7528 30.3515 65.0657 32.0154C64.3786 33.6793 64.1988 35.5101 64.5491 37.2765C64.8993 39.0428 65.764 40.6653 67.0336 41.9388C68.3033 43.2122 69.9209 44.0794 71.682 44.4308C73.4431 44.7821 75.268 44.6019 76.9273 43.9127C78.5858 43.2235 80.0036 42.0564 81.0017 40.5589C81.9991 39.0614 82.5314 37.301 82.5314 35.5C82.5286 33.0859 81.5708 30.7715 79.8691 29.0644C78.1674 27.3574 75.8598 26.3971 73.453 26.3943ZM73.453 41.1005C72.4238 41.101 71.4151 40.8163 70.5373 40.278C69.6595 39.7396 68.9471 38.9684 68.4787 38.0495C68.0103 37.1307 67.8041 36.0998 67.883 35.0709C67.9618 34.0419 68.3226 33.0548 68.9255 32.2185C69.5283 31.3822 70.3498 30.7292 71.299 30.3317C72.249 29.9342 73.2895 29.8075 74.306 29.9658C75.3232 30.124 76.276 30.5608 77.061 31.2282C77.8461 31.8956 78.4315 32.7676 78.7535 33.7477H73.453V37.2523H78.7535C78.3847 38.3707 77.674 39.3444 76.7227 40.0351C75.7713 40.7259 74.6274 41.0986 73.453 41.1005Z" fill="#080829"/>
</svg>
