<svg width="178" height="100" viewBox="0 0 178 100" fill="none" xmlns="http://www.w3.org/2000/svg">
<path d="M88.693 55.3741H83.573V41.6861H88.693V55.3741ZM84.073 54.8741H88.193V42.1861H84.073V54.8741ZM95.817 55.3741H90.8V41.6861H101.282C102.784 41.5645 104.279 41.9861 105.496 42.8741C106.02 43.3534 106.426 43.9473 106.683 44.6094C106.939 45.2715 107.039 45.9839 106.975 46.6911C107.05 47.9131 106.661 49.1183 105.886 50.0661C104.969 51.1181 103.443 51.6601 101.351 51.6791C100.824 51.6931 96.875 51.6791 95.82 51.6791L95.817 55.3741ZM91.297 54.8741H95.317V51.1741H95.568C95.619 51.1741 100.746 51.1901 101.339 51.1741C103.288 51.1571 104.689 50.6741 105.508 49.7311C106.198 48.8736 106.54 47.7883 106.468 46.6901C106.529 46.0565 106.444 45.4172 106.219 44.8219C105.993 44.2265 105.634 43.6911 105.168 43.2571C104.04 42.4472 102.659 42.067 101.275 42.1851H91.3L91.297 54.8741ZM100.22 48.6041H95.283V44.8781H100.253C100.605 44.8294 100.964 44.8705 101.296 44.9976C101.629 45.1247 101.923 45.3337 102.153 45.6051C102.362 45.9521 102.46 46.3541 102.435 46.7581C102.454 47.1332 102.373 47.5066 102.2 47.8401C101.963 48.126 101.656 48.3461 101.309 48.4792C100.963 48.6123 100.588 48.6539 100.22 48.6001V48.6041ZM95.783 48.1041H100.22C101.04 48.1041 101.548 47.9331 101.773 47.5811C101.897 47.3253 101.953 47.0419 101.936 46.7581C101.958 46.4602 101.893 46.1623 101.75 45.9001L101.744 45.8911C101.506 45.5411 101.033 45.3781 100.253 45.3781H95.783V48.1041ZM116.1 55.5761C111.61 55.5761 108.93 54.4611 107.909 52.1681C107.742 51.7252 107.628 51.2639 107.571 50.7941L107.527 50.5061H112.869L112.904 50.7161C112.945 50.9294 113.036 51.13 113.168 51.3021C113.379 51.5571 114.083 51.9851 116.419 51.9851C119.227 51.9851 119.227 51.4921 119.227 51.2271C119.227 50.7801 118.902 50.6271 116.612 50.3831L116.177 50.3421C115.315 50.2611 114.225 50.1581 113.727 50.1151C109.527 49.7351 107.652 48.4301 107.652 45.8851C107.652 43.2121 110.843 41.4851 115.782 41.4851C119.811 41.4851 122.407 42.5471 123.496 44.6441C123.754 45.1319 123.928 45.6601 124.009 46.2061L124.044 46.4871H118.696L118.674 46.2611C118.653 46.0845 118.578 45.9188 118.458 45.7871C118.258 45.5191 117.626 45.0761 115.664 45.0761C113.255 45.0761 112.923 45.3841 112.923 45.7161C112.923 46.1591 113.684 46.3161 116.123 46.5771C117.14 46.6601 118.775 46.8281 119.335 46.8961C122.856 47.2781 124.427 48.5511 124.427 51.0251C124.428 53.1001 122.983 55.5761 116.1 55.5761ZM108.111 51.0061C108.161 51.3359 108.247 51.6592 108.368 51.9701C109.298 54.0591 111.828 55.0761 116.1 55.0761C119.672 55.0761 123.931 54.3761 123.931 51.0251C123.931 48.8321 122.541 47.7461 119.282 47.3931C118.722 47.3251 117.097 47.1581 116.082 47.0741C113.482 46.7921 112.425 46.6421 112.425 45.7161C112.425 44.7581 113.564 44.5761 115.666 44.5761C117.327 44.5761 118.4 44.8761 118.855 45.4811C118.979 45.6302 119.073 45.8021 119.131 45.9871H123.465C123.378 45.6004 123.24 45.2268 123.055 44.8761C122.055 42.9571 119.612 41.9851 115.784 41.9851C111.149 41.9851 108.154 43.5161 108.154 45.8851C108.154 48.1451 109.835 49.2611 113.773 49.6171C114.273 49.6601 115.362 49.7631 116.226 49.8451L116.664 49.8861C118.791 50.1101 119.729 50.2501 119.729 51.2271C119.729 52.2791 118.516 52.4851 116.421 52.4851C114.483 52.4851 113.259 52.1941 112.786 51.6211C112.64 51.4384 112.53 51.2297 112.462 51.0061H108.111ZM133.927 55.5591C128.707 55.5591 125.827 53.4481 125.827 49.6141V41.6861H130.879V49.6141C130.879 50.9291 132.056 51.6831 134.107 51.6831C136.067 51.6831 137.284 50.8961 137.284 49.6311V41.6861H142.284V50.0341C142.289 53.5451 139.24 55.5591 133.924 55.5591H133.927ZM126.327 42.1861V49.6141C126.327 54.3521 131.085 55.0591 133.927 55.0591C136.865 55.0591 141.792 54.4061 141.792 50.0341V42.1861H137.792V49.6311C137.792 51.1811 136.348 52.1831 134.115 52.1831C131.781 52.1831 130.387 51.2231 130.387 49.6141V42.1861H126.327ZM163.472 55.3741H158.704V49.1941L156 55.3741H151.841L149.165 49.2061V55.3741H144.38V41.6861H150.674L153.944 49.2331L157.372 41.6861H163.478L163.472 55.3741ZM159.204 54.8741H162.972V42.1861H157.69L153.928 50.4651L150.342 42.1861H144.876V54.8741H148.661V46.8001L152.161 54.8771H155.661L159.198 46.8121L159.204 54.8741ZM19.054 41.9361H14.5V55.1241H27.084V51.6131H19.054V41.9361ZM36.276 41.6361C30.463 41.6361 27.406 44.3911 27.406 48.4361C27.406 53.0061 30.615 55.3241 36.276 55.3241C42.508 55.3241 45.129 52.6361 45.129 48.4361C45.129 44.1711 42.172 41.6341 36.276 41.6341V41.6361ZM36.259 45.0631C36.6547 45.0613 37.0502 45.0843 37.443 45.1321L32.352 50.2231C32.1111 49.6782 31.9936 49.0867 32.008 48.4911C32.008 46.4221 33.05 45.0611 36.259 45.0611V45.0631ZM36.276 51.9511C35.8947 51.9528 35.5137 51.9314 35.135 51.8871L40.235 46.7871C40.4669 47.323 40.5779 47.9034 40.56 48.4871C40.56 50.5001 39.6 51.9491 36.276 51.9491V51.9511ZM54.152 50.1511H58.839C58.77 50.4764 58.6262 50.7811 58.419 51.0411C57.4473 51.8327 56.2072 52.2179 54.958 52.1161C54.3292 52.1834 53.6934 52.1147 53.0935 51.9147C52.4935 51.7148 51.9436 51.3882 51.481 50.9571C51.0071 50.262 50.782 49.4272 50.842 48.5881C50.7653 47.7089 51.0101 46.8316 51.531 46.1191C52.186 45.3791 53.295 45.0601 54.925 45.0601C55.9621 44.9742 56.9979 45.2406 57.865 45.8161C58.1383 46.0332 58.3426 46.325 58.453 46.6561H62.8C62.7684 46.1106 62.6372 45.5754 62.413 45.0771C61.372 42.9601 58.952 41.7001 54.837 41.7001C51.258 41.7001 48.856 42.7921 47.529 44.4391C46.6526 45.6285 46.2027 47.0785 46.252 48.5551C46.1953 50.0651 46.6335 51.5522 47.5 52.7901C48.811 54.4901 51.146 55.3261 53.952 55.3261C55.8175 55.4562 57.6703 54.9337 59.193 53.8481L59.311 55.1241H62.922V47.3121H54.152V50.1511ZM73.171 41.6331C67.359 41.6331 64.301 44.3881 64.301 48.4331C64.301 53.0031 67.509 55.3211 73.171 55.3211C79.404 55.3211 82.025 52.6331 82.025 48.4331C82.025 44.1711 79.068 41.6341 73.171 41.6341V41.6331ZM73.155 45.0601C73.5403 45.059 73.9253 45.081 74.308 45.1261L69.237 50.2001C69.0036 49.6613 68.89 49.0782 68.904 48.4911C68.9 46.4221 69.946 45.0611 73.155 45.0611V45.0601ZM73.171 51.9481C72.7796 51.9498 72.3885 51.9271 72 51.8801L77.117 46.7621C77.3577 47.3051 77.4729 47.8954 77.454 48.4891C77.456 50.5001 76.5 51.9491 73.171 51.9491V51.9481Z" fill="#080829"/>
</svg>
